<svg width="100" height="76" viewBox="0 0 100 76" fill="none" xmlns="http://www.w3.org/2000/svg" xmlns:xlink="http://www.w3.org/1999/xlink">
<clipPath id="clip0_281_3330">
<rect x="20.6763" width="58.4842" height="48.5506" />
</clipPath>
<g clip-path="url(#clip0_281_3330)">
<image x="-192.842" y="-271.807" width="321.946" height="482.918" href="./logo-icon.png" />
</g>
<path d="M39.6202 70.4029C38.4542 70.4029 37.4331 70.1094 36.5567 69.5226C35.6802 68.9357 34.9956 68.1375 34.5026 67.1281C34.0174 66.1187 33.7748 64.9801 33.7748 63.7124C33.7748 62.4213 34.0213 61.2749 34.5143 60.2733C35.0151 59.2639 35.7155 58.4696 36.6153 57.8906C37.5152 57.3115 38.5716 57.022 39.7845 57.022C40.9896 57.022 42.0029 57.3155 42.8245 57.9023C43.6462 58.4892 44.2683 59.2874 44.6908 60.2968C45.1134 61.3062 45.3246 62.4448 45.3246 63.7124C45.3246 64.9801 45.1094 66.1187 44.6791 67.1281C44.2565 68.1375 43.6227 68.9357 42.7776 69.5226C41.9325 70.1094 40.88 70.4029 39.6202 70.4029ZM40.1366 67.5624C40.8487 67.5624 41.416 67.402 41.8386 67.0811C42.269 66.7603 42.578 66.3104 42.7658 65.7313C42.9536 65.1523 43.0475 64.4793 43.0475 63.7124C43.0475 62.9456 42.9536 62.2726 42.7658 61.6936C42.578 61.1145 42.2768 60.6646 41.862 60.3438C41.4551 60.0229 40.9191 59.8625 40.254 59.8625C39.5419 59.8625 38.955 60.0386 38.4934 60.3907C38.0395 60.735 37.703 61.2006 37.4839 61.7875C37.2648 62.3665 37.1553 63.0082 37.1553 63.7124C37.1553 64.4245 37.2609 65.074 37.4722 65.6609C37.6835 66.2399 38.0082 66.7016 38.4464 67.0459C38.8846 67.3902 39.448 67.5624 40.1366 67.5624ZM43.0475 70.0507V61.3649H42.6485V53.1486H45.8646V70.0507H43.0475Z" fill="#23D3C2"/>
<path d="M26.0891 70.4029C24.7902 70.4029 23.6438 70.1251 22.65 69.5695C21.6641 69.0061 20.8894 68.2353 20.326 67.2572C19.7704 66.2712 19.4926 65.1444 19.4926 63.8768C19.4926 62.4917 19.7665 61.2867 20.3142 60.2616C20.862 59.2365 21.6171 58.4423 22.5796 57.8789C23.5421 57.3076 24.6493 57.022 25.9013 57.022C27.2316 57.022 28.3623 57.335 29.2935 57.961C30.2247 58.587 30.9133 59.4673 31.3593 60.602C31.8054 61.7366 31.9619 63.0708 31.8288 64.6045H28.6714V63.4307C28.6714 62.1396 28.4641 61.2123 28.0493 60.6489C27.6424 60.0777 26.9734 59.7921 26.0422 59.7921C24.9545 59.7921 24.1524 60.1246 23.636 60.7898C23.1274 61.4471 22.873 62.4213 22.873 63.7124C22.873 64.894 23.1274 65.8096 23.636 66.459C24.1524 67.1007 24.9076 67.4215 25.9013 67.4215C26.5273 67.4215 27.0634 67.2846 27.5094 67.0107C27.9554 66.7368 28.2958 66.3417 28.5306 65.8252L31.7232 66.7407C31.2459 67.8989 30.4907 68.7987 29.4578 69.4404C28.4328 70.082 27.3099 70.4029 26.0891 70.4029ZM21.8871 64.6045V62.2335H30.2912V64.6045H21.8871Z" fill="#23D3C2"/>
<path d="M0 70.0508V53.1487H2.86397L8.45107 64.3698L14.0382 53.1487H16.9021V70.0508H13.9208V59.9565L9.01448 70.0508H7.88767L2.98135 59.9565V70.0508H0Z" fill="#23D3C2"/>
<path d="M94.1546 70.4029C92.8947 70.4029 91.8423 70.1095 90.9971 69.5226C90.152 68.9357 89.5143 68.1376 89.0839 67.1281C88.6614 66.1187 88.4501 64.9802 88.4501 63.7125C88.4501 62.4448 88.6614 61.3063 89.0839 60.2969C89.5065 59.2874 90.1286 58.4893 90.9502 57.9024C91.7718 57.3155 92.7852 57.0221 93.9902 57.0221C95.2031 57.0221 96.2595 57.3116 97.1594 57.8906C98.0593 58.4697 98.7557 59.2639 99.2487 60.2734C99.7495 61.275 99.9999 62.4214 99.9999 63.7125C99.9999 64.9802 99.7534 66.1187 99.2604 67.1281C98.7753 68.1376 98.0945 68.9357 97.2181 69.5226C96.3417 70.1095 95.3205 70.4029 94.1546 70.4029ZM87.9102 75.6849V57.3742H90.7272V66.06H91.1263V75.6849H87.9102ZM93.6381 67.5624C94.3267 67.5624 94.8901 67.3903 95.3283 67.046C95.7665 66.7017 96.0913 66.24 96.3025 65.6609C96.5138 65.0741 96.6195 64.4246 96.6195 63.7125C96.6195 63.0082 96.5099 62.3666 96.2908 61.7875C96.0717 61.2006 95.7313 60.7351 95.2696 60.3908C94.8158 60.0386 94.2328 59.8626 93.5207 59.8626C92.8556 59.8626 92.3157 60.023 91.9009 60.3438C91.494 60.6646 91.1967 61.1146 91.0089 61.6936C90.8211 62.2727 90.7272 62.9456 90.7272 63.7125C90.7272 64.4794 90.8211 65.1523 91.0089 65.7314C91.1967 66.3104 91.5019 66.7604 91.9244 67.0812C92.3548 67.402 92.926 67.5624 93.6381 67.5624Z" fill="#FF7062"/>
<path d="M81.2222 70.0508V52.7965H84.4149V70.0508H81.2222Z" fill="#FF7062"/>
<path d="M72.5975 70.4029C71.2985 70.4029 70.1522 70.1251 69.1584 69.5696C68.1724 69.0062 67.3978 68.2354 66.8343 67.2573C66.2788 66.2713 66.001 65.1445 66.001 63.8768C66.001 62.4918 66.2749 61.2867 66.8226 60.2616C67.3704 59.2366 68.1255 58.4423 69.088 57.8789C70.0504 57.3077 71.1577 57.0221 72.4097 57.0221C73.74 57.0221 74.8707 57.3351 75.8019 57.9611C76.7331 58.5871 77.4217 59.4674 77.8677 60.602C78.3137 61.7367 78.4702 63.0708 78.3372 64.6046H75.1798V63.4308C75.1798 62.1397 74.9724 61.2124 74.5577 60.649C74.1508 60.0778 73.4817 59.7921 72.5506 59.7921C71.4629 59.7921 70.6608 60.1247 70.1443 60.7898C69.6357 61.4471 69.3814 62.4214 69.3814 63.7125C69.3814 64.8941 69.6357 65.8096 70.1443 66.4591C70.6608 67.1008 71.4159 67.4216 72.4097 67.4216C73.0357 67.4216 73.5717 67.2846 74.0178 67.0108C74.4638 66.7369 74.8042 66.3417 75.0389 65.8253L78.2316 66.7408C77.7542 67.8989 76.9991 68.7988 75.9662 69.4404C74.9411 70.0821 73.8182 70.4029 72.5975 70.4029ZM68.3954 64.6046V62.2336H76.7996V64.6046H68.3954Z" fill="#FF7062"/>
<path d="M49.4656 70.0508V53.1487H52.6582V60.0973H60.2172V53.1487H63.4098V70.0508H60.2172V63.0787H52.6582V70.0508H49.4656Z" fill="#FF7062"/>

</svg>
