<svg width="24" height="24" viewBox="0 0 24 24" fill="none" xmlns="http://www.w3.org/2000/svg">
<path d="M5.72825 13.5225L5.74388 13.5332C6.0831 13.5895 6.33715 13.8885 6.32396 14.2412C6.29842 14.8998 6.42757 15.5248 6.75267 16.0791L6.83861 16.2129C7.28692 16.8672 7.99438 17.2969 8.79954 17.4736C8.97854 17.5131 9.13534 17.6212 9.23509 17.7764C9.33471 17.9316 9.36824 18.1208 9.32884 18.3008C9.28923 18.4812 9.17958 18.6381 9.02513 18.7373C8.86859 18.8377 8.6793 18.8692 8.50072 18.8301C7.33753 18.5742 6.24389 17.907 5.57786 16.8203L5.57298 16.8154L5.55638 16.7881C5.07544 15.9724 4.89897 15.0662 4.93333 14.1865C4.94827 13.8023 5.27242 13.5049 5.65404 13.5195L5.72825 13.5225Z" fill="currentColor"/>
<path fill-rule="evenodd" clip-rule="evenodd" d="M9.84056 2.53906C10.2264 2.56659 10.4759 2.84239 10.5935 3.0625C11.3979 4.57046 12.3575 5.71367 13.3015 6.77246C14.2084 7.78965 15.1126 8.74528 15.824 9.85742C19.0033 9.88223 21.5834 12.4748 21.5837 15.6611C21.5837 18.8621 18.9789 21.4667 15.7781 21.4668C14.7802 21.4668 13.8408 21.2127 13.0193 20.7676C12.2836 21.1044 11.4836 21.3288 10.6443 21.4199L10.2624 21.4521C10.1207 21.4604 9.94877 21.4639 9.77708 21.4639L9.29173 21.4521C5.63791 21.2324 2.60653 18.5103 2.42357 14.7012C2.40995 14.4139 2.41694 14.0095 2.43529 13.7334C2.59716 11.2971 3.7201 9.67372 5.02122 8.16992C6.32502 6.66306 7.79206 5.25291 8.96068 3.06348C9.05798 2.88024 9.24579 2.66224 9.52611 2.5752L9.67191 2.53906H9.84056ZM15.7781 11.2461C13.3336 11.2461 11.3614 13.2176 11.3611 15.6611C11.3611 18.1058 13.3333 20.0781 15.7781 20.0781C18.2216 20.078 20.1941 18.1059 20.1941 15.6611C20.1937 13.2178 18.2215 11.2463 15.7781 11.2461ZM9.77122 4.37988C8.57692 6.37771 7.18226 7.79552 6.072 9.07812C4.83497 10.5074 3.95639 11.789 3.82103 13.8252C3.80664 14.0367 3.8015 14.4296 3.81126 14.6338C3.95909 17.7182 6.35208 19.8837 9.37376 20.0645C9.5803 20.077 9.97298 20.077 10.1794 20.0645C10.7088 20.0332 11.2188 19.9376 11.7009 19.7881C10.6359 18.7352 9.9724 17.2749 9.9724 15.6611C9.97268 12.9813 11.7992 10.7204 14.2722 10.0557C13.6795 9.25956 12.9525 8.48968 12.1697 7.5957C11.3713 6.68399 10.5332 5.65662 9.77122 4.37988Z" fill="currentColor"/>
<path d="M16.5383 12.7561L16.5383 16.9455L17.9426 15.5412C18.2354 15.2485 18.7103 15.2485 19.0031 15.5412C19.296 15.8341 19.2959 16.3089 19.0031 16.6018L16.3186 19.2863L16.2619 19.3381C15.9673 19.5783 15.5326 19.5609 15.258 19.2863L12.5744 16.6018C12.2815 16.3089 12.2815 15.8341 12.5744 15.5412C12.8673 15.2487 13.3422 15.2484 13.635 15.5412L15.0383 16.9455L15.0383 12.7561C15.0383 12.342 15.3742 12.0062 15.7883 12.0061C16.2025 12.0061 16.5383 12.3419 16.5383 12.7561Z" fill="currentColor"/>
</svg>
