<svg width="24" height="24" viewBox="0 0 24 24" fill="none" xmlns="http://www.w3.org/2000/svg">
<path d="M18.3848 3.75C18.8333 3.75 19.2296 3.89072 19.5645 4.16797L19.7051 4.29492L19.832 4.43457C20.1097 4.76927 20.25 5.16655 20.25 5.61621V7.95703C20.3601 8.01516 20.4649 8.08557 20.5645 8.16797L20.7051 8.29492L20.832 8.43457C21.1097 8.76927 21.25 9.16655 21.25 9.61621V14.3848C21.25 14.8974 21.0667 15.3427 20.7051 15.7051C20.5657 15.8444 20.4131 15.9559 20.25 16.042V18.3848C20.25 18.8974 20.0667 19.3427 19.7051 19.7051C19.3433 20.0669 18.898 20.25 18.3848 20.25H5.61621C5.10241 20.25 4.65683 20.067 4.29492 19.7051C3.9331 19.3433 3.75 18.898 3.75 18.3848V5.61523C3.75 5.10255 3.93335 4.65726 4.29492 4.29492C4.65683 3.93302 5.10241 3.75 5.61621 3.75H18.3848ZM5.61523 5.25C5.49496 5.25 5.41317 5.28605 5.34961 5.34961C5.28623 5.41298 5.25 5.49498 5.25 5.61621V18.3848C5.25 18.505 5.28605 18.5868 5.34961 18.6504C5.41298 18.7138 5.49498 18.75 5.61621 18.75H18.3848C18.505 18.75 18.5868 18.714 18.6504 18.6504C18.714 18.5868 18.75 18.505 18.75 18.3848V16.25H13.6162C13.1024 16.25 12.6568 16.067 12.2949 15.7051C11.9331 15.3433 11.75 14.898 11.75 14.3848V9.61523C11.75 9.10255 11.9333 8.65726 12.2949 8.29492C12.6568 7.93302 13.1024 7.75 13.6162 7.75H18.75V5.61621C18.75 5.49498 18.7138 5.41298 18.6504 5.34961C18.5868 5.28605 18.505 5.25 18.3848 5.25H5.61523ZM13.6152 9.25C13.495 9.25 13.4132 9.28605 13.3496 9.34961C13.2862 9.41298 13.25 9.49498 13.25 9.61621V14.3848C13.25 14.505 13.286 14.5868 13.3496 14.6504C13.413 14.7138 13.495 14.75 13.6162 14.75H19.3848C19.505 14.75 19.5868 14.714 19.6504 14.6504C19.714 14.5868 19.75 14.505 19.75 14.3848V9.61523C19.75 9.49496 19.714 9.41317 19.6504 9.34961C19.5868 9.28605 19.505 9.25 19.3848 9.25H13.6152ZM16.001 10.25C16.4837 10.2516 16.902 10.4226 17.2402 10.7607C17.5785 11.099 17.7492 11.5176 17.75 12C17.7507 12.4828 17.5789 12.9014 17.2393 13.2402C16.9001 13.5784 16.4825 13.7488 16.001 13.749C15.5201 13.752 15.1016 13.5811 14.7607 13.2402C14.4198 12.8993 14.2477 12.4805 14.25 11.999C14.2523 11.5196 14.4238 11.1027 14.7598 10.7627C15.0976 10.4209 15.5169 10.2485 16.001 10.25Z" fill="#23D3C2"/>
</svg>
