<svg width="24" height="24" viewBox="0 0 24 24" fill="none" xmlns="http://www.w3.org/2000/svg">
<path fill-rule="evenodd" clip-rule="evenodd" d="M16.861 12.0791C17.2444 12.0794 17.5553 12.39 17.5554 12.7734V13.8848H18.6667C19.0501 13.8851 19.3609 14.1957 19.361 14.5791V16.7451C19.361 17.1287 19.0501 17.4392 18.6667 17.4395H17.5554V18.5508C17.5554 18.9343 17.2445 19.2448 16.861 19.2451H14.694C14.3104 19.2451 13.9997 18.9344 13.9997 18.5508V17.4395H12.8884C12.5047 17.4394 12.194 17.1288 12.194 16.7451V14.5791C12.1942 14.1955 12.5048 13.8848 12.8884 13.8848H13.9997V12.7734C13.9998 12.3898 14.3105 12.0791 14.694 12.0791H16.861ZM15.3884 14.5791C15.3882 14.9626 15.0776 15.2734 14.694 15.2734H13.5827V16.0508H14.694C15.0775 16.0509 15.3881 16.3617 15.3884 16.7451V17.8564H16.1667V16.7451C16.167 16.3616 16.4775 16.0508 16.861 16.0508H17.9724V15.2734H16.861C16.4774 15.2734 16.1668 14.9627 16.1667 14.5791V13.4678H15.3884V14.5791Z" fill="#23D3C2"/>
<path d="M5.72822 13.5225L5.74385 13.5332C6.08307 13.5895 6.33712 13.8885 6.32393 14.2412C6.29839 14.8998 6.42754 15.5248 6.75264 16.0791L6.83858 16.2129C7.28689 16.8672 7.99435 17.2969 8.79951 17.4736C8.97851 17.5131 9.13531 17.6212 9.23506 17.7764C9.33468 17.9316 9.3682 18.1208 9.32881 18.3008C9.2892 18.4812 9.17955 18.6381 9.0251 18.7373C8.86856 18.8377 8.67927 18.8692 8.50069 18.8301C7.3375 18.5742 6.24386 17.907 5.57783 16.8203L5.57295 16.8154L5.55635 16.7881C5.07541 15.9724 4.89894 15.0662 4.9333 14.1865C4.94824 13.8023 5.27239 13.5049 5.65401 13.5195L5.72822 13.5225Z" fill="#23D3C2"/>
<path fill-rule="evenodd" clip-rule="evenodd" d="M9.84053 2.53906C10.2264 2.56659 10.4758 2.84239 10.5935 3.0625C11.3979 4.57046 12.3574 5.71367 13.3015 6.77246C14.2084 7.78965 15.1126 8.74528 15.8239 9.85742C19.0033 9.88223 21.5834 12.4748 21.5837 15.6611C21.5837 18.8621 18.9789 21.4667 15.778 21.4668C14.7802 21.4668 13.8408 21.2127 13.0192 20.7676C12.2836 21.1044 11.4836 21.3288 10.6442 21.4199L10.2624 21.4521C10.1207 21.4604 9.94874 21.4639 9.77705 21.4639L9.2917 21.4521C5.63788 21.2324 2.6065 18.5103 2.42354 14.7012C2.40992 14.4139 2.41691 14.0095 2.43526 13.7334C2.59713 11.2971 3.72007 9.67372 5.02119 8.16992C6.32499 6.66306 7.79203 5.25291 8.96065 3.06348C9.05795 2.88024 9.24576 2.66224 9.52608 2.5752L9.67188 2.53906H9.84053ZM15.778 11.2461C13.3335 11.2461 11.3614 13.2176 11.361 15.6611C11.361 18.1058 13.3332 20.0781 15.778 20.0781C18.2216 20.078 20.194 18.1059 20.194 15.6611C20.1937 13.2178 18.2215 11.2463 15.778 11.2461ZM9.77119 4.37988C8.57689 6.37771 7.18223 7.79552 6.07197 9.07812C4.83494 10.5074 3.95636 11.789 3.821 13.8252C3.80661 14.0367 3.80147 14.4296 3.81123 14.6338C3.95906 17.7182 6.35205 19.8837 9.37373 20.0645C9.58027 20.077 9.97295 20.077 10.1794 20.0645C10.7088 20.0332 11.2188 19.9376 11.7009 19.7881C10.6359 18.7352 9.97236 17.2749 9.97236 15.6611C9.97265 12.9813 11.7991 10.7204 14.2722 10.0557C13.6795 9.25956 12.9525 8.48968 12.1696 7.5957C11.3712 6.68399 10.5332 5.65662 9.77119 4.37988Z" fill="#23D3C2"/>
</svg>
