<svg width="24" height="24" viewBox="0 0 24 24" fill="none" xmlns="http://www.w3.org/2000/svg">
<mask id="path-1-inside-1_288_2651" fill="white">
<path d="M12.2771 13.9332C11.6555 13.9323 11.0911 13.6912 10.6849 13.3017C10.2778 12.9122 10.0251 12.3743 10.0251 11.7818C10.0251 10.884 10.4704 10.334 10.9548 9.73631C11.2938 9.31819 11.6564 8.87058 11.8282 8.25725C11.8945 8.02043 12.149 7.8799 12.3971 7.94321C12.5634 7.98572 12.6843 8.1089 12.7261 8.25725C12.8978 8.87142 13.2605 9.31817 13.5994 9.73631C14.0838 10.334 14.5291 10.884 14.5291 11.7818C14.5291 12.3743 14.2765 12.9121 13.8694 13.3017C13.4622 13.6903 12.8988 13.9323 12.2762 13.9332H12.2771ZM12.2771 2.42526C12.6652 2.42526 13.0178 2.57621 13.2741 2.82082C13.5304 3.06373 13.6885 3.40117 13.6885 3.77246C13.6885 4.14375 13.5304 4.48119 13.275 4.72496L13.245 4.75099C12.9924 4.97913 12.6506 5.11968 12.2771 5.11968C11.8882 5.11968 11.5346 4.96874 11.2793 4.72498C11.0239 4.48121 10.8658 4.14463 10.8658 3.77248C10.8658 3.40119 11.0239 3.06375 11.2793 2.81998C11.5346 2.57621 11.8872 2.42526 12.2771 2.42526ZM12.617 3.44717C12.5316 3.36476 12.4107 3.31357 12.2771 3.31357C12.1444 3.31357 12.0236 3.36476 11.9372 3.44803C11.8509 3.53044 11.7964 3.64582 11.7964 3.77246C11.7964 3.89912 11.85 4.01448 11.9372 4.09689C12.0236 4.1793 12.1444 4.23135 12.2771 4.23135C12.4016 4.23135 12.5161 4.18711 12.5997 4.11424L12.6161 4.09776C12.7024 4.01535 12.757 3.89998 12.757 3.77333C12.757 3.64669 12.7033 3.53131 12.6161 3.44804L12.617 3.44717ZM12.7361 19.4877C12.667 21.8472 12.0327 22.5916 11.1193 22.5916C10.4368 22.5916 9.70158 22.105 8.94546 21.6044C8.01848 20.9911 7.05062 20.3518 6.5845 20.966C4.61421 23.5649 3.2592 23.1243 2.50029 22.6003C2.36215 22.5049 2.25219 22.4103 2.16313 22.334L2.15586 22.3279C1.9641 22.1648 1.94683 21.8846 2.11769 21.7016C2.28854 21.5185 2.58209 21.5021 2.77384 21.6652L2.78111 21.6712C2.85654 21.7363 2.94742 21.8144 3.04556 21.882C3.49814 22.1943 4.34514 22.406 5.83204 20.4455C6.82991 19.1286 8.18043 20.0204 9.47189 20.8757C10.1053 21.2947 10.7224 21.7025 11.1186 21.7025C11.4994 21.7025 11.7675 21.1681 11.8057 19.4869H11.195C10.9378 19.4869 10.7297 19.2882 10.7297 19.0427V17.6331H9.29556C8.54126 17.6331 7.85512 17.3381 7.35801 16.8645C6.8609 16.39 6.55191 15.735 6.55191 15.015V5.94637C6.55191 5.22809 6.8609 4.57314 7.35801 4.09864L7.36074 4.09603C7.85875 3.62239 8.54398 3.32745 9.29557 3.32745H9.40916C9.50822 2.74018 9.80086 2.21361 10.2225 1.81197L10.2489 1.78854C10.7724 1.30102 11.4885 1 12.2764 1C13.078 1 13.8041 1.31055 14.3303 1.81195L14.3548 1.83711C14.7629 2.23702 15.0464 2.75317 15.1437 3.32743H15.2573C16.0116 3.32743 16.6977 3.62237 17.1948 4.09688C17.6919 4.57139 18 5.22633 18 5.94635V15.015C18 15.7342 17.691 16.3882 17.1948 16.8627C16.6959 17.3381 16.0107 17.6331 15.2573 17.6331H13.8232V19.0427C13.8232 19.2882 13.6151 19.4869 13.3579 19.4869H12.7353L12.7361 19.4877ZM11.6619 17.6338V18.5994H12.8924V17.6338H11.661H11.6619ZM9.83791 4.21739H9.29627C8.79735 4.21739 8.34384 4.4117 8.01668 4.72399C7.68769 5.03802 7.48412 5.47089 7.48412 5.94713V15.0158C7.48412 15.4912 7.6886 15.924 8.01668 16.2372C8.34477 16.5504 8.79826 16.7456 9.29627 16.7456H15.2589C15.7578 16.7456 16.2114 16.5513 16.5394 16.2381C16.8675 15.924 17.0711 15.4912 17.0711 15.0158V5.94713C17.0711 5.47176 16.8675 5.03889 16.5385 4.72572C16.2104 4.41255 15.7569 4.21737 15.2589 4.21737H14.7173C14.4601 4.21737 14.252 4.01871 14.252 3.77322C14.252 3.26227 14.0393 2.79904 13.6949 2.45984L13.674 2.44162C13.3178 2.10158 12.8234 1.8899 12.2781 1.8899C11.7428 1.8899 11.2566 2.09289 10.9012 2.42166L10.8822 2.44161C10.5259 2.78165 10.3042 3.25356 10.3042 3.77406C10.3042 4.01957 10.096 4.21821 9.83885 4.21821L9.83791 4.21739ZM11.3429 12.678C11.5819 12.9062 11.9127 13.0484 12.2771 13.0493C12.6416 13.0484 12.9724 12.907 13.2123 12.678C13.4504 12.4499 13.5985 12.1332 13.5985 11.7836C13.5985 11.1834 13.2477 10.7505 12.866 10.2794C12.667 10.0339 12.4616 9.77977 12.2781 9.4883C12.0945 9.77977 11.8891 10.0339 11.6901 10.2794C11.3084 10.7505 10.9576 11.1842 10.9576 11.7836C10.9576 12.1332 11.1057 12.4499 11.3438 12.678H11.3429Z"/>
</mask>
<path d="M12.2771 13.9332C11.6555 13.9323 11.0911 13.6912 10.6849 13.3017C10.2778 12.9122 10.0251 12.3743 10.0251 11.7818C10.0251 10.884 10.4704 10.334 10.9548 9.73631C11.2938 9.31819 11.6564 8.87058 11.8282 8.25725C11.8945 8.02043 12.149 7.8799 12.3971 7.94321C12.5634 7.98572 12.6843 8.1089 12.7261 8.25725C12.8978 8.87142 13.2605 9.31817 13.5994 9.73631C14.0838 10.334 14.5291 10.884 14.5291 11.7818C14.5291 12.3743 14.2765 12.9121 13.8694 13.3017C13.4622 13.6903 12.8988 13.9323 12.2762 13.9332H12.2771ZM12.2771 2.42526C12.6652 2.42526 13.0178 2.57621 13.2741 2.82082C13.5304 3.06373 13.6885 3.40117 13.6885 3.77246C13.6885 4.14375 13.5304 4.48119 13.275 4.72496L13.245 4.75099C12.9924 4.97913 12.6506 5.11968 12.2771 5.11968C11.8882 5.11968 11.5346 4.96874 11.2793 4.72498C11.0239 4.48121 10.8658 4.14463 10.8658 3.77248C10.8658 3.40119 11.0239 3.06375 11.2793 2.81998C11.5346 2.57621 11.8872 2.42526 12.2771 2.42526ZM12.617 3.44717C12.5316 3.36476 12.4107 3.31357 12.2771 3.31357C12.1444 3.31357 12.0236 3.36476 11.9372 3.44803C11.8509 3.53044 11.7964 3.64582 11.7964 3.77246C11.7964 3.89912 11.85 4.01448 11.9372 4.09689C12.0236 4.1793 12.1444 4.23135 12.2771 4.23135C12.4016 4.23135 12.5161 4.18711 12.5997 4.11424L12.6161 4.09776C12.7024 4.01535 12.757 3.89998 12.757 3.77333C12.757 3.64669 12.7033 3.53131 12.6161 3.44804L12.617 3.44717ZM12.7361 19.4877C12.667 21.8472 12.0327 22.5916 11.1193 22.5916C10.4368 22.5916 9.70158 22.105 8.94546 21.6044C8.01848 20.9911 7.05062 20.3518 6.5845 20.966C4.61421 23.5649 3.2592 23.1243 2.50029 22.6003C2.36215 22.5049 2.25219 22.4103 2.16313 22.334L2.15586 22.3279C1.9641 22.1648 1.94683 21.8846 2.11769 21.7016C2.28854 21.5185 2.58209 21.5021 2.77384 21.6652L2.78111 21.6712C2.85654 21.7363 2.94742 21.8144 3.04556 21.882C3.49814 22.1943 4.34514 22.406 5.83204 20.4455C6.82991 19.1286 8.18043 20.0204 9.47189 20.8757C10.1053 21.2947 10.7224 21.7025 11.1186 21.7025C11.4994 21.7025 11.7675 21.1681 11.8057 19.4869H11.195C10.9378 19.4869 10.7297 19.2882 10.7297 19.0427V17.6331H9.29556C8.54126 17.6331 7.85512 17.3381 7.35801 16.8645C6.8609 16.39 6.55191 15.735 6.55191 15.015V5.94637C6.55191 5.22809 6.8609 4.57314 7.35801 4.09864L7.36074 4.09603C7.85875 3.62239 8.54398 3.32745 9.29557 3.32745H9.40916C9.50822 2.74018 9.80086 2.21361 10.2225 1.81197L10.2489 1.78854C10.7724 1.30102 11.4885 1 12.2764 1C13.078 1 13.8041 1.31055 14.3303 1.81195L14.3548 1.83711C14.7629 2.23702 15.0464 2.75317 15.1437 3.32743H15.2573C16.0116 3.32743 16.6977 3.62237 17.1948 4.09688C17.6919 4.57139 18 5.22633 18 5.94635V15.015C18 15.7342 17.691 16.3882 17.1948 16.8627C16.6959 17.3381 16.0107 17.6331 15.2573 17.6331H13.8232V19.0427C13.8232 19.2882 13.6151 19.4869 13.3579 19.4869H12.7353L12.7361 19.4877ZM11.6619 17.6338V18.5994H12.8924V17.6338H11.661H11.6619ZM9.83791 4.21739H9.29627C8.79735 4.21739 8.34384 4.4117 8.01668 4.72399C7.68769 5.03802 7.48412 5.47089 7.48412 5.94713V15.0158C7.48412 15.4912 7.6886 15.924 8.01668 16.2372C8.34477 16.5504 8.79826 16.7456 9.29627 16.7456H15.2589C15.7578 16.7456 16.2114 16.5513 16.5394 16.2381C16.8675 15.924 17.0711 15.4912 17.0711 15.0158V5.94713C17.0711 5.47176 16.8675 5.03889 16.5385 4.72572C16.2104 4.41255 15.7569 4.21737 15.2589 4.21737H14.7173C14.4601 4.21737 14.252 4.01871 14.252 3.77322C14.252 3.26227 14.0393 2.79904 13.6949 2.45984L13.674 2.44162C13.3178 2.10158 12.8234 1.8899 12.2781 1.8899C11.7428 1.8899 11.2566 2.09289 10.9012 2.42166L10.8822 2.44161C10.5259 2.78165 10.3042 3.25356 10.3042 3.77406C10.3042 4.01957 10.096 4.21821 9.83885 4.21821L9.83791 4.21739ZM11.3429 12.678C11.5819 12.9062 11.9127 13.0484 12.2771 13.0493C12.6416 13.0484 12.9724 12.907 13.2123 12.678C13.4504 12.4499 13.5985 12.1332 13.5985 11.7836C13.5985 11.1834 13.2477 10.7505 12.866 10.2794C12.667 10.0339 12.4616 9.77977 12.2781 9.4883C12.0945 9.77977 11.8891 10.0339 11.6901 10.2794C11.3084 10.7505 10.9576 11.1842 10.9576 11.7836C10.9576 12.1332 11.1057 12.4499 11.3438 12.678H11.3429Z" fill="currentColor" stroke="currentColor" stroke-width="2" mask="url(#path-1-inside-1_288_2651)"/>
</svg>
