<svg width="24" height="24" viewBox="0 0 24 24" fill="none" xmlns="http://www.w3.org/2000/svg">
<path fill-rule="evenodd" clip-rule="evenodd" d="M15.187 2.97301C17.85 5.63601 17.377 10.573 13.975 13.975C10.573 17.377 5.63597 17.85 2.97297 15.187C0.310975 12.525 0.783974 7.587 4.18597 4.186C7.58697 0.784005 12.525 0.311005 15.187 2.97301ZM14.127 4.034C11.971 1.87801 8.00097 2.492 5.24597 5.246C2.49197 8.00101 1.87797 11.971 4.03397 14.127C6.18997 16.283 10.16 15.669 12.914 12.914C15.669 10.16 16.283 6.19 14.127 4.034Z" fill="currentColor"/>
<path fill-rule="evenodd" clip-rule="evenodd" d="M15.9839 9.18902C15.6039 9.02602 15.4269 8.58502 15.5909 8.20402C15.7539 7.82402 16.1949 7.64802 16.5759 7.81102C17.7209 8.30202 18.8329 9.04402 19.8139 10.025C23.2159 13.427 23.6889 18.364 21.0269 21.027C18.3639 23.689 13.4269 23.216 10.0249 19.814C9.00695 18.796 8.24695 17.638 7.75695 16.447C7.59895 16.064 7.78195 15.625 8.16395 15.467C8.54695 15.31 8.98595 15.493 9.14295 15.875C9.56295 16.894 10.2149 17.883 11.0859 18.754C13.8399 21.508 17.8099 22.122 19.9659 19.966C22.1219 17.81 21.5079 13.84 18.7539 11.086C17.9139 10.246 16.9639 9.61002 15.9839 9.18902Z" fill="currentColor"/>
<path fill-rule="evenodd" clip-rule="evenodd" d="M10.407 4.48501C10.336 4.07701 10.61 3.68901 11.017 3.61801C11.425 3.54701 11.814 3.82101 11.885 4.22801C12.198 6.03201 11.506 8.20101 9.85295 9.85301C8.20095 11.506 6.03195 12.198 4.22795 11.885C3.82095 11.814 3.54695 11.425 3.61795 11.017C3.68895 10.61 4.07695 10.336 4.48495 10.407C5.87295 10.648 7.52195 10.064 8.79295 8.79301C10.064 7.52201 10.648 5.87301 10.407 4.48501Z" fill="currentColor"/>
<path fill-rule="evenodd" clip-rule="evenodd" d="M19.5149 16.246C19.9229 16.175 20.3109 16.449 20.3819 16.856C20.4529 17.264 20.1789 17.653 19.7719 17.724C17.9679 18.037 15.7989 17.345 14.1469 15.692C13.6099 15.156 13.1739 14.564 12.8409 13.949C12.6429 13.585 12.7789 13.13 13.1429 12.933C13.5069 12.735 13.9619 12.871 14.1589 13.235C14.4259 13.728 14.7769 14.201 15.2069 14.632C16.4779 15.903 18.1269 16.487 19.5149 16.246Z" fill="currentColor"/>
</svg>
