<svg width="24" height="24" viewBox="0 0 24 24" fill="none" xmlns="http://www.w3.org/2000/svg">
<path d="M18 20.3459V21.8459H6V20.3459H18ZM20.5 17.8459V7.84592C20.5 6.4652 19.3807 5.34592 18 5.34592H6C4.61929 5.34592 3.5 6.46521 3.5 7.84592V17.8459C3.5 19.2266 4.61929 20.3459 6 20.3459V21.8459L5.79395 21.841C3.7488 21.7373 2.10865 20.0971 2.00488 18.052L2 17.8459V7.84592C2 5.63678 3.79086 3.84592 6 3.84592H18C20.2091 3.84592 22 5.63678 22 7.84592V17.8459C22 19.986 20.3194 21.7338 18.2061 21.841L18 21.8459V20.3459C19.3807 20.3459 20.5 19.2266 20.5 17.8459Z" fill="#23D3C2"/>
<rect x="2.98157" y="9.03156" width="17.9766" height="1.5" fill="#23D3C2"/>
<rect x="7.27917" y="2.15408" width="1.5" height="5" rx="0.75" fill="#23D3C2"/>
<rect x="15.2638" y="2.15408" width="1.5" height="5" rx="0.75" fill="#23D3C2"/>
<circle cx="8" cy="13.4091" r="1" fill="#23D3C2"/>
<circle cx="12" cy="13.4091" r="1" fill="#23D3C2"/>
<circle cx="16" cy="13.4091" r="1" fill="#23D3C2"/>
<circle cx="8" cy="17.4091" r="1" fill="#23D3C2"/>
<circle cx="12" cy="17.4091" r="1" fill="#23D3C2"/>
<circle cx="16" cy="17.4091" r="1" fill="#23D3C2"/>
</svg>
