<svg width="24" height="24" viewBox="0 0 24 24" fill="none" xmlns="http://www.w3.org/2000/svg">
<path d="M5.94037 18.1297V20.8814L11.7081 18.1297H16.4311C17.5341 18.1297 18.4311 17.2327 18.4311 16.1297V8.12967C18.4311 7.02667 17.5341 6.12967 16.4311 6.12967H4.43109C3.32809 6.12967 2.43109 7.02667 2.43109 8.12967V16.1297C2.43109 17.2327 3.32809 18.1297 4.43109 18.1297H5.94037ZM3.93672 8.62487C3.93672 8.07259 4.38444 7.62487 4.93672 7.62487H15.9366C16.4888 7.62487 16.9366 8.07259 16.9366 8.62487V15.6439C16.9366 16.1962 16.4888 16.6439 15.9366 16.6439H11.5737C11.2826 16.6439 10.9949 16.7075 10.7309 16.8302L7.43109 18.3637V17.6439C7.43109 17.0916 6.98338 16.6439 6.43109 16.6439H4.93672C4.38444 16.6439 3.93672 16.1962 3.93672 15.6439V8.62487Z" fill="#23D3C2"/>
<path d="M19.5689 3.11865H7.56891C5.96984 3.11865 5.56892 3.43797 5.56891 4.62256H17.5677C19.4289 4.62256 20.0664 5.4518 20.0664 7.12791V15.1177C21.5689 15.1177 21.5689 14.2217 21.5689 13.1187V5.11865C21.5689 4.01565 20.6719 3.11865 19.5689 3.11865Z" fill="#23D3C2"/>
</svg>
