<svg width="24" height="24" viewBox="0 0 24 24" fill="none" xmlns="http://www.w3.org/2000/svg">
<path d="M11.999 3.75H12.001C13.0843 3.74867 14.1574 3.96141 15.1582 4.37598C16.159 4.79055 17.068 5.3991 17.833 6.16602L17.834 6.16699C18.6009 6.93199 19.2095 7.84104 19.624 8.8418C20.0386 9.84262 20.2513 10.9157 20.25 11.999V12.001C20.2513 13.0843 20.0386 14.1574 19.624 15.1582C19.2095 16.159 18.6009 17.068 17.834 17.833L17.833 17.834C17.068 18.6009 16.159 19.2095 15.1582 19.624C14.1574 20.0386 13.0843 20.2513 12.001 20.25H11.999C10.9157 20.2513 9.84262 20.0386 8.8418 19.624C7.84104 19.2095 6.93199 18.6009 6.16699 17.834L6.16602 17.833L5.88574 17.5391C5.24994 16.8389 4.7387 16.0338 4.37598 15.1582C3.96141 14.1574 3.74867 13.0843 3.75 12.001V11.999C3.74867 10.9157 3.96141 9.84262 4.37598 8.8418C4.79055 7.84104 5.3991 6.93199 6.16602 6.16699L6.16699 6.16602C6.93199 5.3991 7.84104 4.79055 8.8418 4.37598C9.84262 3.96141 10.9157 3.74867 11.999 3.75Z" stroke="currentColor" stroke-width="1.5" stroke-linejoin="round"/>
<path d="M7.5 12L10.5 15L16.5 9" stroke="currentColor" stroke-width="1.5" stroke-linecap="round" stroke-linejoin="round"/>
</svg>
