<svg width="24" height="24" viewBox="0 0 24 24" fill="none" xmlns="http://www.w3.org/2000/svg">
<path d="M20.37 18.2L15.13 10.34C14.88 9.97 14.75 9.54 14.75 9.09V3.75H15C15.41 3.75 15.75 3.41 15.75 3C15.75 2.59 15.41 2.25 15 2.25H9C8.59 2.25 8.25 2.59 8.25 3C8.25 3.41 8.59 3.75 9 3.75H9.25V9.09C9.25 9.54 9.12 9.97 8.87 10.34L3.63 18.2C3.38 18.58 3.25 19.01 3.25 19.47C3.25 20.73 4.27 21.76 5.54 21.76H18.47C19.73 21.76 20.76 20.73 20.76 19.47C20.76 19.02 20.63 18.58 20.38 18.2H20.37ZM10.12 11.17C10.53 10.55 10.75 9.83 10.75 9.09V3.75H13.25V9.09C13.25 9.83 13.47 10.55 13.88 11.17L15.27 13.25H8.74L10.13 11.17H10.12ZM18.46 20.25H5.54C5.11 20.25 4.75 19.9 4.75 19.46C4.75 19.3 4.8 19.15 4.88 19.02L7.73 14.74H16.26L19.11 19.02C19.2 19.15 19.24 19.3 19.24 19.46C19.24 19.89 18.89 20.25 18.45 20.25H18.46Z" fill="#23D3C2"/>
</svg>
