<svg width="24" height="24" viewBox="0 0 24 24" fill="none" xmlns="http://www.w3.org/2000/svg">
<path d="M12 19C13.6569 19 15 17.6569 15 16C15 14.3431 13.6569 13 12 13C10.3431 13 9 14.3431 9 16C9 17.6569 10.3431 19 12 19Z" stroke="#23D3C2" stroke-width="1.5"/>
<path d="M9.113 15.96L8.073 17L6.595 18.417C6.271 18.728 6.109 18.883 6.053 19.015C5.99003 19.1553 5.98179 19.3142 6.02989 19.4604C6.07799 19.6065 6.17896 19.7294 6.313 19.805C6.435 19.874 6.656 19.895 7.096 19.939C7.344 19.963 7.469 19.975 7.573 20.012C7.68601 20.0512 7.7892 20.1144 7.8755 20.1973C7.9618 20.2801 8.02917 20.3806 8.073 20.492C8.112 20.592 8.125 20.711 8.15 20.95C8.195 21.372 8.218 21.583 8.29 21.7C8.454 21.967 8.801 22.072 9.114 21.95C9.251 21.895 9.413 21.74 9.737 21.43L12 19.26L14.263 21.43C14.587 21.74 14.749 21.895 14.886 21.95C15.199 22.072 15.546 21.967 15.71 21.7C15.782 21.583 15.805 21.372 15.85 20.95C15.875 20.711 15.888 20.592 15.927 20.492C15.9708 20.3806 16.0382 20.2801 16.1245 20.1973C16.2108 20.1144 16.314 20.0512 16.427 20.012C16.532 19.975 16.656 19.963 16.904 19.939C17.344 19.896 17.565 19.874 17.687 19.805C17.821 19.7294 17.922 19.6065 17.9701 19.4604C18.0182 19.3142 18.01 19.1553 17.947 19.015C17.891 18.883 17.729 18.728 17.405 18.417L15.926 17L15 16.073" stroke="#23D3C2" stroke-width="1.5"/>
<path d="M17.32 17.996C19.292 17.975 20.392 17.851 21.121 17.121C22 16.243 22 14.828 22 12V8C22 5.172 22 3.757 21.121 2.879C20.243 2 18.828 2 16 2H8C5.172 2 3.757 2 2.879 2.879C2 3.757 2 5.172 2 8V12C2 14.828 2 16.243 2.879 17.121C3.647 17.89 4.825 17.986 7 17.998" stroke="#23D3C2" stroke-width="1.5"/>
<path d="M9 6H15M7 9.5H17" stroke="#23D3C2" stroke-width="1.5" stroke-linecap="round"/>
</svg>
