<svg width="24" height="24" viewBox="0 0 24 24" fill="none" xmlns="http://www.w3.org/2000/svg">
<g opacity="0.5">
<path d="M12 16.251C15.866 16.251 19 13.117 19 9.25098C19 5.38498 15.866 2.25098 12 2.25098C8.13401 2.25098 5 5.38498 5 9.25098C5 13.117 8.13401 16.251 12 16.251Z" stroke="#23D3C2" stroke-width="1.5"/>
<path d="M9 9.25098L11 11.251L15 7.25098" stroke="#23D3C2" stroke-width="1.5" stroke-linecap="round" stroke-linejoin="round"/>
<path d="M18.3477 11.7334L19.1964 12.5831L21.9075 15.1804C22.5014 15.7505 22.7983 16.0346 22.901 16.2766C23.0164 16.5339 23.0315 16.8251 22.9433 17.093C22.8551 17.3609 22.6701 17.5862 22.4244 17.7247C22.2007 17.8511 21.7956 17.8915 20.9891 17.9703C20.5345 18.0143 20.3072 18.0363 20.1148 18.1041C19.9076 18.176 19.7185 18.2919 19.5603 18.4438C19.4021 18.5956 19.2786 18.7799 19.1983 18.9839C19.1268 19.1673 19.1029 19.3854 19.0571 19.8235C18.9746 20.597 18.9325 20.9838 18.8005 21.1982C18.4999 21.6877 17.8638 21.8801 17.2901 21.6565C17.039 21.5557 16.742 21.2716 16.1481 20.7033L12 16.7257L7.85188 20.7033C7.25798 21.2716 6.96104 21.5557 6.70991 21.6565C6.13618 21.8801 5.50012 21.6877 5.19951 21.1982C5.06753 20.9838 5.02537 20.597 4.94288 19.8235C4.89706 19.3854 4.87323 19.1673 4.80174 18.9839C4.72141 18.7799 4.59792 18.5956 4.43972 18.4438C4.28153 18.2919 4.09238 18.176 3.88523 18.1041C3.6946 18.0363 3.46547 18.0143 3.01088 17.9703C2.20436 17.8896 1.79926 17.8511 1.57563 17.7247C1.32994 17.5862 1.14486 17.3609 1.05669 17.093C0.968517 16.8251 0.983625 16.5339 1.09905 16.2766C1.2017 16.0346 1.49864 15.7505 2.09254 15.1804L4.80174 12.5831L5.75491 11.6299" stroke="#23D3C2" stroke-width="1.5"/>
</g>
</svg>
