<svg width="24" height="24" viewBox="0 0 24 24" fill="none" xmlns="http://www.w3.org/2000/svg">
<path d="M19.05 10.89L19.76 10.18C20.44 9.5 20.44 8.39 19.76 7.7L14.81 2.76C14.13 2.08 13.02 2.08 12.33 2.76L11.62 3.47C11.13 3.96 11 4.67 11.21 5.29L3.49 13.02C1.83 14.68 1.83 17.37 3.49 19.03C4.32 19.86 5.41 20.27 6.5 20.27C7.59 20.27 8.68 19.86 9.51 19.03L17.24 11.3C17.43 11.37 17.63 11.41 17.82 11.41C18.27 11.41 18.72 11.24 19.06 10.9L19.05 10.89ZM12.69 4.53L13.4 3.82C13.5 3.72 13.66 3.72 13.75 3.82L18.7 8.77C18.8 8.87 18.8 9.03 18.7 9.12L17.99 9.83C17.89 9.93 17.73 9.93 17.64 9.83L12.69 4.88C12.59 4.78 12.59 4.62 12.69 4.53ZM14.28 12.13L12.69 10.54C12.4 10.25 11.92 10.25 11.63 10.54C11.34 10.83 11.34 11.31 11.63 11.6L13.22 13.19L12.16 14.25L10.57 12.66C10.28 12.37 9.8 12.37 9.51 12.66C9.22 12.95 9.22 13.43 9.51 13.72L11.1 15.31L10.04 16.37L8.45 14.78C8.16 14.49 7.68 14.49 7.39 14.78C7.1 15.07 7.1 15.55 7.39 15.84L8.97999 17.43L8.45 17.96C7.37999 19.03 5.62999 19.03 4.55999 17.96C3.48999 16.89 3.48999 15.14 4.55999 14.07L12.16 6.47L14.1 8.41L16.04 10.35L14.27 12.12L14.28 12.13Z" fill="currentColor"/>
<path d="M21.95 16.86L20.69 13.72C20.46 13.15 19.53 13.15 19.3 13.72L18.04 16.86C17.78 17.51 17.86 18.24 18.25 18.82C18.64 19.4 19.29 19.74 19.99 19.74C20.69 19.74 21.34 19.39 21.73 18.82C22.12 18.24 22.2 17.51 21.94 16.86H21.95ZM20.5 17.98C20.27 18.32 19.73 18.32 19.5 17.98C19.39 17.81 19.36 17.61 19.44 17.42L20 16.02L20.56 17.42C20.64 17.61 20.61 17.81 20.5 17.98Z" fill="currentColor"/>
</svg>
