<svg width="24" height="24" viewBox="0 0 24 24" fill="none" xmlns="http://www.w3.org/2000/svg">
<path d="M19.35 10.03L18.19 7.71C18.51 7.62 18.75 7.34 18.75 7V4C18.75 3.04 17.96 2.25 17 2.25H7C6.04 2.25 5.25 3.04 5.25 4V7C5.25 7.35 5.49 7.62 5.81 7.71L4.65 10.03C4.39 10.55 4.25 11.13 4.25 11.71V18C4.25 20.07 5.93 21.75 8 21.75H16C18.07 21.75 19.75 20.07 19.75 18V11.71C19.75 11.13 19.61 10.55 19.35 10.03ZM6.75 4C6.75 3.86 6.86 3.75 7 3.75H17C17.14 3.75 17.25 3.86 17.25 4V6.25H6.75V4ZM18.25 18C18.25 19.24 17.24 20.25 16 20.25H8C6.76 20.25 5.75 19.24 5.75 18V11.71C5.75 11.36 5.83 11.01 5.99 10.7L7.47 7.75H16.54L18.02 10.7C18.18 11.01 18.26 11.36 18.26 11.71V18H18.25Z" fill="#23D3C2"/>
<path d="M14 13.25H12.75V12C12.75 11.59 12.41 11.25 12 11.25C11.59 11.25 11.25 11.59 11.25 12V13.25H10C9.59 13.25 9.25 13.59 9.25 14C9.25 14.41 9.59 14.75 10 14.75H11.25V16C11.25 16.41 11.59 16.75 12 16.75C12.41 16.75 12.75 16.41 12.75 16V14.75H14C14.41 14.75 14.75 14.41 14.75 14C14.75 13.59 14.41 13.25 14 13.25Z" fill="#23D3C2"/>
</svg>
