<svg width="24" height="24" viewBox="0 0 24 24" fill="none" xmlns="http://www.w3.org/2000/svg">
<path d="M20.594 6.29203L17.702 3.40527C17.5737 3.27681 17.4212 3.17489 17.2533 3.10534C17.0854 3.0358 16.9055 3 16.7237 3C16.542 3 16.362 3.0358 16.1941 3.10534C16.0262 3.17489 15.8738 3.27681 15.7454 3.40527L3.98012 15.2178L3.02757 19.3381C2.98699 19.5378 2.99125 19.7441 3.04006 19.9419C3.08887 20.1398 3.181 20.3244 3.30984 20.4825C3.43867 20.6406 3.601 20.7682 3.78516 20.8562C3.96931 20.9442 4.17071 20.9904 4.37487 20.9914C4.4804 21.0029 4.58686 21.0029 4.69239 20.9914L8.85444 20.0748L20.594 8.24509C20.7227 8.11697 20.8248 7.96477 20.8945 7.7972C20.9641 7.62963 21 7.44999 21 7.26856C21 7.08713 20.9641 6.90748 20.8945 6.73991C20.8248 6.57234 20.7227 6.42014 20.594 6.29203ZM7.96196 18.4901L4.82111 19.1839L5.55054 16.0744L14.4067 7.17433L16.8267 9.58995L7.96196 18.4901ZM17.7964 8.62199L15.3764 6.20637L16.7066 4.85294L19.1437 7.28569L17.7964 8.62199Z" fill="#23D3C2"/>
</svg>
