<svg width="24" height="24" viewBox="0 0 24 24" fill="none" xmlns="http://www.w3.org/2000/svg">
<path d="M1 4.55835C1 3.56379 1.39509 2.60996 2.09835 1.9067C2.80161 1.20344 3.75544 0.80835 4.75 0.80835H19.25C20.2446 0.80835 21.1984 1.20344 21.9016 1.9067C22.6049 2.60996 23 3.56379 23 4.55835V15.0583C23 15.5508 22.903 16.0384 22.7145 16.4934C22.5261 16.9484 22.2499 17.3618 21.9016 17.71C21.5534 18.0582 21.14 18.3344 20.6851 18.5229C20.2301 18.7114 19.7425 18.8083 19.25 18.8083H12.532L7.9375 22.8284C7.72491 23.0142 7.46328 23.1349 7.18391 23.176C6.90454 23.2171 6.61925 23.1768 6.36214 23.0601C6.10504 22.9433 5.88701 22.7549 5.73412 22.5175C5.58123 22.2801 5.49995 22.0037 5.5 21.7213V18.8083H4.75C3.75544 18.8083 2.80161 18.4133 2.09835 17.71C1.39509 17.0067 1 16.0529 1 15.0583V4.55835ZM4.75 2.30835C4.15326 2.30835 3.58097 2.5454 3.15901 2.96736C2.73705 3.38932 2.5 3.96161 2.5 4.55835V15.0583C2.5 15.6551 2.73705 16.2274 3.15901 16.6493C3.58097 17.0713 4.15326 17.3083 4.75 17.3083H7V21.6553L11.968 17.3083H19.25C19.8467 17.3083 20.419 17.0713 20.841 16.6493C21.2629 16.2274 21.5 15.6551 21.5 15.0583V4.55835C21.5 3.96161 21.2629 3.38932 20.841 2.96736C20.419 2.5454 19.8467 2.30835 19.25 2.30835H4.75Z" fill="currentColor"/>
<path d="M6.375 13.8625C6.375 13.1166 6.67132 12.4012 7.19876 11.8737C7.72621 11.3463 8.44158 11.05 9.1875 11.05H14.8125C15.5584 11.05 16.2738 11.3463 16.8012 11.8737C17.3287 12.4012 17.625 13.1166 17.625 13.8625C17.625 14.2354 17.4768 14.5931 17.2131 14.8569C16.9494 15.1206 16.5917 15.2687 16.2188 15.2687H7.78125C7.40829 15.2687 7.0506 15.1206 6.78688 14.8569C6.52316 14.5931 6.375 14.2354 6.375 13.8625Z" stroke="currentColor" stroke-width="1.5" stroke-linejoin="round"/>
<path d="M12 8.54999C13.165 8.54999 14.1094 7.60559 14.1094 6.44061C14.1094 5.27564 13.165 4.33124 12 4.33124C10.835 4.33124 9.89062 5.27564 9.89062 6.44061C9.89062 7.60559 10.835 8.54999 12 8.54999Z" stroke="currentColor" stroke-width="1.5"/>
</svg>
