<svg width="24" height="24" viewBox="0 0 24 24" fill="none" xmlns="http://www.w3.org/2000/svg">
<path d="M21 8.75C21.41 8.75 21.75 8.41 21.75 8V7C21.75 4.38 19.62 2.25 17 2.25H7C4.38 2.25 2.25 4.38 2.25 7V12C2.25 12.41 2.59 12.75 3 12.75H7C7.28 12.75 7.54 12.59 7.67 12.34L8.96 9.76L12.31 17.31C12.43 17.58 12.7 17.76 13 17.76C13.3 17.76 13.57 17.58 13.68 17.31L16.04 11.8L16.32 12.35C16.45 12.6 16.71 12.76 16.99 12.76H20.24V17.01C20.24 18.8 18.78 20.26 16.99 20.26H7C5.21 20.26 3.75 18.8 3.75 17.01V16.01C3.75 15.6 3.41 15.26 3 15.26C2.59 15.26 2.25 15.6 2.25 16.01V17.01C2.25 19.63 4.38 21.76 7 21.76H17C19.62 21.76 21.75 19.63 21.75 17.01V12.01C21.75 11.6 21.41 11.26 21 11.26H17.46L16.67 9.67C16.54 9.41 16.25 9.24 15.98 9.26C15.69 9.26 15.43 9.45 15.31 9.71L12.99 15.13L9.69 7.7C9.57 7.43 9.31 7.26 9.02 7.25C8.72 7.25 8.46 7.4 8.33 7.66L6.54 11.25H3.75V7C3.75 5.21 5.21 3.75 7 3.75H17C18.79 3.75 20.25 5.21 20.25 7V8C20.25 8.41 20.59 8.75 21 8.75Z" fill="currentColor"/>
</svg>
