<svg width="24" height="24" viewBox="0 0 24 24" fill="none" xmlns="http://www.w3.org/2000/svg">
<path d="M21 20.4615C21 20.8696 20.8276 21.2609 20.5207 21.5494C20.2138 21.8379 19.7976 22 19.3636 22H4.63636C4.20237 22 3.78616 21.8379 3.47928 21.5494C3.1724 21.2609 3 20.8696 3 20.4615V3.53846C3 3.13044 3.1724 2.73912 3.47928 2.4506C3.78616 2.16209 4.20237 2 4.63636 2H15.2727L21 7.38462V20.4615Z" stroke="currentColor" stroke-width="1.5" stroke-linecap="round" stroke-linejoin="round"/>
<path d="M12.0003 8.76926V12L14.0195 14.0192" stroke="currentColor" stroke-width="1.5" stroke-linecap="round" stroke-linejoin="round"/>
<path d="M7.97862 7.1799C10.429 5.13646 14.0882 5.28965 16.3995 7.6008C18.7695 9.97095 18.8697 13.7584 16.6603 16.2063L16.4396 16.4387C14.0635 18.8153 10.2374 18.8454 7.78038 16.5715L7.6212 16.4192C7.61457 16.4126 7.60731 16.4062 7.60069 16.3996L7.42882 16.217C6.82623 15.5671 6.36446 14.7978 6.08018 13.9563C5.76934 13.0357 5.67601 12.0547 5.80772 11.092C5.82024 10.9976 5.85243 10.9087 5.89757 10.8303C5.94453 10.7488 6.00725 10.678 6.08116 10.6213C6.15562 10.5643 6.2421 10.5223 6.33311 10.4983C6.42434 10.4743 6.51937 10.4681 6.61143 10.4807C6.70234 10.4932 6.79276 10.5232 6.87511 10.5715C6.95735 10.6199 7.02776 10.6844 7.08311 10.758C7.13954 10.8332 7.1801 10.9194 7.20323 11.01C7.22488 11.0953 7.21383 11.1986 7.21788 11.2863V11.2883C7.11642 12.0325 7.18927 12.7903 7.42979 13.5022C7.67058 14.2146 8.07349 14.8622 8.60655 15.3928L8.62608 15.4123C10.5283 17.2934 13.5701 17.2958 15.4337 15.4328L15.6036 15.2541C17.2455 13.4339 17.2367 10.6358 15.5665 8.7883L15.3937 8.60666C13.6412 6.8549 10.9079 6.71152 9.02647 8.16428C9.06052 8.17295 9.09467 8.18194 9.12706 8.19553C9.21251 8.23144 9.29143 8.28409 9.35753 8.3508C9.4228 8.41679 9.47544 8.49567 9.51085 8.58224L9.55089 8.71603C9.55968 8.76158 9.56379 8.80825 9.56358 8.85471C9.56332 8.9018 9.55835 8.94892 9.54893 8.99435L9.50792 9.12619C9.47199 9.21175 9.4191 9.29072 9.35265 9.35666C9.28657 9.42208 9.2078 9.47455 9.1212 9.50998C9.03452 9.5454 8.94166 9.56309 8.84874 9.56271L7.28233 9.55588C7.09449 9.55486 6.91443 9.47891 6.78233 9.34689C6.6507 9.21506 6.57421 9.03538 6.57335 8.84689L6.56554 7.28049C6.56511 7.18738 6.58305 7.09442 6.61827 7.00803C6.6538 6.92105 6.70643 6.84246 6.77159 6.77658C6.83785 6.70966 6.91682 6.65715 7.00206 6.62131L7.13487 6.58029C7.17996 6.57104 7.22613 6.56596 7.27257 6.56564C7.36584 6.56522 7.46008 6.58342 7.54601 6.61838C7.63292 6.65391 7.71165 6.70661 7.77745 6.7717L7.86534 6.87717C7.89163 6.91538 7.91511 6.95704 7.9337 7.00119C7.95761 7.05819 7.97016 7.11888 7.97862 7.1799Z" fill="currentColor"/>
</svg>
