<svg width="24" height="24" viewBox="0 0 24 24" fill="none" xmlns="http://www.w3.org/2000/svg">
<path d="M11.9971 4.36523C12.4125 4.36525 12.7894 4.49007 13.1191 4.73828L13.1201 4.73926L18.5049 8.81543H18.5039C18.7373 8.98703 18.9199 9.20601 19.0508 9.46875C19.1828 9.73217 19.25 10.0138 19.25 10.3086V19C19.2499 19.3379 19.1213 19.6345 18.8779 19.8779C18.6344 20.1214 18.338 20.25 18 20.25H14.1162C13.8243 20.25 13.5673 20.1491 13.3633 19.9453V19.9443C13.1599 19.74 13.0577 19.4838 13.0576 19.1924V14.3662H10.9424V19.1924C10.9423 19.4843 10.8406 19.7414 10.6367 19.9453C10.4329 20.149 10.1762 20.25 9.88477 20.25H6C5.66202 20.25 5.36556 20.1214 5.12207 19.8779C4.87869 19.6345 4.75006 19.3379 4.75 19V10.3086C4.75 10.0138 4.81619 9.73217 4.94824 9.46875C5.04722 9.27143 5.17553 9.09868 5.33203 8.95215L5.49805 8.81445L10.8789 4.73926C11.2054 4.48993 11.5814 4.36523 11.9971 4.36523ZM12 5.86621C11.9165 5.86621 11.8542 5.89088 11.7998 5.93848L11.793 5.94434L11.7852 5.9502L6.4082 10.001C6.35492 10.0458 6.31527 10.0953 6.28613 10.1484C6.26339 10.19 6.24958 10.2408 6.25 10.3066V18.75H9.44238V13.9229C9.44247 13.6311 9.54452 13.3746 9.74902 13.1709C9.95265 12.9669 10.2085 12.8652 10.5 12.8652H13.5C13.7919 12.8652 14.0486 12.9676 14.2529 13.1719C14.4564 13.3756 14.5575 13.6316 14.5576 13.9229V18.75H17.75V10.3086C17.75 10.2436 17.7358 10.1905 17.7119 10.1455C17.6838 10.0927 17.645 10.0453 17.5928 10.0029V10.002L12.2158 5.9502L12.2021 5.93848C12.1469 5.89039 12.0835 5.86621 12 5.86621Z" fill="currentColor"/>
</svg>
