<svg width="24" height="24" viewBox="0 0 24 24" fill="none" xmlns="http://www.w3.org/2000/svg">
<path d="M12.713 13.712C12.521 13.904 12.2833 14 12 14C11.7167 14 11.4793 13.904 11.288 13.712C11.096 13.5207 11 13.2833 11 13V8C11 7.71667 11.096 7.479 11.288 7.287C11.4793 7.09567 11.7167 7 12 7C12.2833 7 12.521 7.09567 12.713 7.287C12.9043 7.479 13 7.71667 13 8V13C13 13.2833 12.9043 13.5207 12.713 13.712Z" fill="currentColor"/>
<path d="M12.713 16.712C12.521 16.904 12.2833 17 12 17C11.7167 17 11.4793 16.904 11.288 16.712C11.096 16.5207 11 16.2833 11 16C11 15.7167 11.096 15.479 11.288 15.287C11.4793 15.0957 11.7167 15 12 15C12.2833 15 12.521 15.0957 12.713 15.287C12.9043 15.479 13 15.7167 13 16C13 16.2833 12.9043 16.5207 12.713 16.712Z" fill="currentColor"/>
<circle cx="12" cy="12" r="8.25" stroke="currentColor" stroke-width="1.5"/>
</svg>
