<svg width="24" height="24" viewBox="0 0 24 24" fill="none" xmlns="http://www.w3.org/2000/svg">
<path d="M21.38 6.86L20.67 6.15L19.26 4.74L17.14 2.62C16.85 2.33 16.37 2.33 16.08 2.62C15.79 2.91 15.79 3.39 16.08 3.68L16.26 3.86L15.2 4.92L15.02 4.74C14.34 4.06 13.23 4.06 12.55 4.74L6.06 11.23C5.54 11.75 5.25 12.44 5.25 13.17V17.69L2.47 20.47C2.18 20.76 2.18 21.24 2.47 21.53C2.62 21.68 2.81 21.75 3 21.75C3.19 21.75 3.38 21.68 3.53 21.53L6.31 18.75H10.83C11.56 18.75 12.25 18.46 12.77 17.94L14.3 16.41L19.25 11.46C19.58 11.13 19.76 10.69 19.76 10.22C19.76 9.75 19.58 9.31 19.25 8.98L19.07 8.8L20.13 7.74L20.31 7.92C20.46 8.07 20.65 8.14 20.84 8.14C21.03 8.14 21.22 8.07 21.37 7.92C21.66 7.63 21.66 7.15 21.37 6.86H21.38ZM18.2 10.4L16.61 11.99L15.02 10.4C14.73 10.11 14.25 10.11 13.96 10.4C13.67 10.69 13.67 11.17 13.96 11.46L15.55 13.05L13.78 14.82L12.19 13.23C11.9 12.94 11.42 12.94 11.13 13.23C10.84 13.52 10.84 14 11.13 14.29L12.72 15.88L11.71 16.89C11.48 17.12 11.16 17.26 10.83 17.26H6.75V13.18C6.75 12.85 6.88 12.53 7.12 12.3L13.61 5.81C13.71 5.71 13.87 5.71 13.96 5.81L16.08 7.93L17.49 9.34L18.2 10.05C18.26 10.11 18.27 10.19 18.27 10.23C18.27 10.27 18.27 10.34 18.2 10.41V10.4ZM18.02 7.75L17.14 6.87L16.26 5.99L17.32 4.93L18.2 5.81L19.08 6.69L18.02 7.75Z" fill="currentColor"/>
</svg>
