<svg width="24" height="24" viewBox="0 0 24 24" fill="none" xmlns="http://www.w3.org/2000/svg">
<path d="M20.8 3.2C19.53 1.93 17.47 1.93 16.2 3.2L14.26 5.14L14.08 4.96C13.75 4.63 13.31 4.45 12.84 4.45C12.37 4.45 11.93 4.63 11.6 4.96L10.89 5.67C10.21 6.35 10.21 7.46 10.89 8.14L11.07 8.32L5.24 14.15C4.83 14.56 4.52 15.07 4.33 15.62L4.07 16.4C3.96 16.73 3.77 17.03 3.53 17.28L2.97 17.84C2.55 18.26 2.31 18.83 2.31 19.43C2.31 20.03 2.54 20.6 2.97 21.02C3.4 21.44 3.96 21.68 4.56 21.68C5.16 21.68 5.73 21.45 6.15 21.02L6.71 20.46C6.96 20.21 7.26 20.03 7.59 19.92L8.37 19.66C8.92 19.48 9.43 19.16 9.84 18.75L15.67 12.92L15.85 13.1C16.19 13.44 16.64 13.61 17.09 13.61C17.54 13.61 17.99 13.44 18.33 13.1L19.04 12.39C19.37 12.06 19.55 11.62 19.55 11.15C19.55 10.68 19.37 10.24 19.04 9.91L18.86 9.73L20.8 7.79C22.07 6.52 22.07 4.46 20.8 3.19V3.2ZM8.78 17.7C8.53 17.95 8.23 18.13 7.9 18.24L7.12 18.5C6.57 18.68 6.06 19 5.65 19.41L5.09 19.97C4.81 20.25 4.31 20.25 4.03 19.97C3.89 19.83 3.81 19.64 3.81 19.44C3.81 19.24 3.89 19.05 4.03 18.91L4.59 18.35C5 17.94 5.31 17.43 5.5 16.88L5.76 16.1C5.87 15.77 6.06 15.47 6.3 15.22L6.81 14.71C6.87 14.73 6.93 14.75 7 14.75H11.73L8.78 17.7ZM13.23 13.25H8.28L12.14 9.39L14.62 11.87L13.23 13.26V13.25ZM19.74 6.74L17.27 9.21C16.98 9.5 16.98 9.98 17.27 10.27L17.98 10.98C18.04 11.04 18.05 11.12 18.05 11.15C18.05 11.18 18.05 11.26 17.98 11.33L17.27 12.04C17.17 12.14 17.01 12.14 16.92 12.04L16.21 11.33L12.67 7.79L11.96 7.08C11.86 6.98 11.86 6.82 11.96 6.73L12.67 6.02C12.73 5.96 12.81 5.95 12.85 5.95C12.85 5.95 12.96 5.95 13.03 6.02L13.74 6.73C14.03 7.02 14.51 7.02 14.8 6.73L17.27 4.26C17.95 3.58 19.06 3.58 19.74 4.26C20.42 4.94 20.42 6.05 19.74 6.73V6.74Z" fill="currentColor"/>
</svg>
