<svg width="24" height="24" viewBox="0 0 24 24" fill="none" xmlns="http://www.w3.org/2000/svg">
<path fill-rule="evenodd" clip-rule="evenodd" d="M15.3984 1.5C15.7493 1.49906 16.0855 1.63838 16.333 1.88672L20.1797 5.73438C20.428 5.98106 20.5671 6.31721 20.5664 6.667V21.0166C20.5664 21.7437 19.9771 22.333 19.25 22.333H4.31641C3.58939 22.3329 3 21.7437 3 21.0166V2.81641C3.00015 2.08949 3.58948 1.50015 4.31641 1.5H15.3984ZM4.31641 2.71094C4.25842 2.71108 4.21108 2.75843 4.21094 2.81641V21.0166C4.21094 21.0747 4.25833 21.1219 4.31641 21.1221H19.25C19.3082 21.1221 19.3555 21.0748 19.3555 21.0166V6.97754H16.4053C15.6782 6.97744 15.0889 6.38821 15.0889 5.66114V2.71094H4.31641ZM16.2998 5.66114C16.2998 5.71927 16.3472 5.7665 16.4053 5.76661H18.499L16.2998 3.56739V5.66114Z" fill="currentColor"/>
<path fill-rule="evenodd" clip-rule="evenodd" d="M5.73877 5.14795H7.8721C8.06837 5.14795 8.22757 4.98875 8.22757 4.79248C8.22757 4.59621 8.06837 4.43701 7.8721 4.43701H5.73877C5.5425 4.43701 5.3833 4.59621 5.3833 4.79248C5.3833 4.98875 5.5425 5.14795 5.73877 5.14795Z" fill="currentColor"/>
<path fill-rule="evenodd" clip-rule="evenodd" d="M9.29455 5.14795H13.5612C13.7575 5.14795 13.9167 4.98875 13.9167 4.79248C13.9167 4.59621 13.7575 4.43701 13.5612 4.43701H9.29455C9.09829 4.43701 8.93909 4.59621 8.93909 4.79248C8.93882 4.98875 9.09802 5.14795 9.29455 5.14795Z" fill="currentColor"/>
<path fill-rule="evenodd" clip-rule="evenodd" d="M5.73877 7.28125H13.9166C14.1129 7.28125 14.2721 7.12205 14.2721 6.92578C14.2721 6.72951 14.1129 6.57031 13.9166 6.57031H5.73877C5.5425 6.57031 5.3833 6.72951 5.3833 6.92578C5.3833 7.12205 5.5425 7.28125 5.73877 7.28125Z" fill="currentColor"/>
<path fill-rule="evenodd" clip-rule="evenodd" d="M8.22783 9.05908C8.22783 8.86281 8.06863 8.70361 7.87237 8.70361H5.73903C5.5425 8.70361 5.3833 8.86281 5.3833 9.05908C5.3833 9.25535 5.5425 9.41455 5.73877 9.41455H7.8721C8.06863 9.41455 8.22783 9.25535 8.22783 9.05908Z" fill="currentColor"/>
<circle cx="12" cy="14.4912" r="4" stroke="currentColor"/>
<path d="M12.002 12.0381C12.278 12.0381 12.5018 12.2621 12.502 12.5381V14H13.9746C14.2506 14.0002 14.4745 14.224 14.4746 14.5C14.4746 14.776 14.2506 14.9998 13.9746 15H12.502V16.4863C12.502 16.7625 12.2781 16.9863 12.002 16.9863C11.7259 16.9863 11.502 16.7624 11.502 16.4863V15H10.0264C9.75022 15 9.52637 14.7761 9.52637 14.5C9.52643 14.2239 9.75027 14 10.0264 14H11.502V12.5381C11.5021 12.2621 11.726 12.0382 12.002 12.0381Z" fill="currentColor"/>
</svg>
