<svg width="24" height="24" viewBox="0 0 24 24" fill="none" xmlns="http://www.w3.org/2000/svg">
<path d="M14 3.5C14 4.03043 13.7893 4.53914 13.4142 4.91421C13.0391 5.28929 12.5304 5.5 12 5.5C11.4696 5.5 10.9609 5.28929 10.5858 4.91421C10.2107 4.53914 10 4.03043 10 3.5M14 3.5C14 2.96957 13.7893 2.46086 13.4142 2.08579C13.0391 1.71071 12.5304 1.5 12 1.5C11.4696 1.5 10.9609 1.71071 10.5858 2.08579C10.2107 2.46086 10 2.96957 10 3.5M14 3.5H18.6C19.2365 3.5 19.847 3.75286 20.2971 4.20294C20.7471 4.65303 21 5.26348 21 5.9V20.1C21 20.7365 20.7471 21.347 20.2971 21.7971C19.847 22.2471 19.2365 22.5 18.6 22.5H5.4C5.08483 22.5 4.77274 22.4379 4.48156 22.3173C4.19038 22.1967 3.9258 22.0199 3.70294 21.7971C3.25286 21.347 3 20.7365 3 20.1V5.9C3 5.58483 3.06208 5.27274 3.18269 4.98156C3.3033 4.69038 3.48008 4.4258 3.70294 4.20294C4.15303 3.75286 4.76348 3.5 5.4 3.5H10M7 12.5H11M7 9.5H17M7 15.5H9M14.306 14.276C14.356 14.074 14.644 14.074 14.694 14.276C14.7932 14.6728 14.9985 16.0511 14.9985 16.0511C14.9985 16.0511 16.3272 16.2068 16.724 16.306C16.926 16.357 16.926 16.644 16.724 16.694C16.3272 16.7932 14.9985 16.9589 14.9985 16.9589C14.9985 16.9589 14.7932 18.3272 14.694 18.724C14.644 18.926 14.356 18.926 14.306 18.724C14.2068 18.3272 13.9823 16.9589 13.9823 16.9589C13.9823 16.9589 12.6728 16.7932 12.276 16.694C12.074 16.644 12.074 16.356 12.276 16.306C12.6728 16.2068 13.9823 16.0511 13.9823 16.0511C13.9823 16.0511 14.2068 14.6728 14.306 14.276Z" stroke="currentColor" stroke-width="1.5" stroke-miterlimit="10" stroke-linecap="round" stroke-linejoin="round"/>
</svg>
