<svg width="24" height="24" viewBox="0 0 24 24" fill="none" xmlns="http://www.w3.org/2000/svg">
<path d="M21 20.25H18.53C19.89 19.2 20.75 17.68 20.75 16C20.75 13.84 19.36 11.93 17.19 10.94L20 8.13C20.88 7.25 20.88 5.82 20 4.95L18.59 3.54C17.71 2.66 16.29 2.66 15.41 3.54L9.05 9.9C8.5 10.45 8.3 11.22 8.44 11.93L7.29 13.08C6.61 13.76 6.61 14.87 7.29 15.55L8 16.26C8.33 16.59 8.77 16.77 9.24 16.77C9.71 16.77 10.15 16.59 10.48 16.26L11.63 15.11C11.77 15.14 11.92 15.15 12.07 15.15C12.67 15.15 13.24 14.92 13.66 14.49L16.05 12.1C17.98 12.76 19.26 14.28 19.26 16C19.26 18.34 16.9 20.25 14.01 20.25H3C2.59 20.25 2.25 20.59 2.25 21C2.25 21.41 2.59 21.75 3 21.75H21C21.41 21.75 21.75 21.41 21.75 21C21.75 20.59 21.41 20.25 21 20.25ZM9.04 15.2L8.33 14.49C8.23 14.39 8.23 14.23 8.33 14.14L9.21 13.26L10.27 14.32L9.39 15.2C9.26 15.33 9.16 15.33 9.04 15.2ZM12.58 13.43C12.3 13.71 11.8 13.71 11.52 13.43L10.11 12.02C9.82 11.73 9.82 11.25 10.11 10.96L16.47 4.6C16.62 4.45 16.81 4.38001 17 4.38001C17.19 4.38001 17.38 4.45 17.53 4.6L18.94 6.01001C19.23 6.30001 19.23 6.78 18.94 7.07L12.58 13.43Z" fill="currentColor"/>
<path d="M5 19.75H11C11.41 19.75 11.75 19.41 11.75 19C11.75 18.59 11.41 18.25 11 18.25H5C4.59 18.25 4.25 18.59 4.25 19C4.25 19.41 4.59 19.75 5 19.75Z" fill="currentColor"/>
</svg>
