<svg width="24" height="24" viewBox="0 0 24 24" fill="none" xmlns="http://www.w3.org/2000/svg">
<path d="M17 2.25H7C4.38 2.25 2.25 4.38 2.25 7V17C2.25 19.62 4.38 21.75 7 21.75H17C19.62 21.75 21.75 19.62 21.75 17V7C21.75 4.38 19.62 2.25 17 2.25ZM20.25 17C20.25 18.79 18.79 20.25 17 20.25H7C5.21 20.25 3.75 18.79 3.75 17V7C3.75 5.21 5.21 3.75 7 3.75H17C18.79 3.75 20.25 5.21 20.25 7V17Z" fill="#23D3C2"/>
<path d="M17 9.25H15C14.68 9.25 14.39 9.46 14.29 9.76L13.86 11.04L11.67 6.66C11.55 6.42 11.31 6.26 11.05 6.25C10.78 6.24 10.53 6.36 10.38 6.58L8.6 9.25H7C6.59 9.25 6.25 9.59 6.25 10C6.25 10.41 6.59 10.75 7 10.75H9C9.25 10.75 9.48 10.62 9.62 10.42L10.9 8.5L13.32 13.34C13.45 13.6 13.71 13.75 13.99 13.75C14.01 13.75 14.03 13.75 14.04 13.75C14.34 13.73 14.6 13.53 14.7 13.24L15.53 10.75H16.99C17.4 10.75 17.74 10.41 17.74 10C17.74 9.59 17.4 9.25 16.99 9.25H17Z" fill="#23D3C2"/>
<path d="M7.02 17.25H7.01C6.6 17.25 6.27 17.59 6.27 18C6.27 18.41 6.61 18.75 7.02 18.75C7.43 18.75 7.77 18.41 7.77 18C7.77 17.59 7.43 17.25 7.02 17.25Z" fill="#23D3C2"/>
<path d="M10.02 17.25H10.01C9.6 17.25 9.27 17.59 9.27 18C9.27 18.41 9.61 18.75 10.02 18.75C10.43 18.75 10.77 18.41 10.77 18C10.77 17.59 10.43 17.25 10.02 17.25Z" fill="#23D3C2"/>
</svg>
