<svg width="24" height="24" viewBox="0 0 24 24" fill="none" xmlns="http://www.w3.org/2000/svg">
<path d="M4.3968 6.67683L5.14394 6.61138L5.1438 6.60988L4.3968 6.67683ZM6.58188 2.76987L6.20733 2.12009L6.20689 2.12035L6.58188 2.76987ZM7.45032 2.26927L7.82488 2.91905L7.82598 2.91841L7.45032 2.26927ZM9.00992 2.06314L8.81581 2.78759L9.00992 2.06314ZM10.2575 3.02145L9.60761 3.3958L9.60799 3.39645L10.2575 3.02145ZM11.4319 5.05555L10.7824 5.43055L10.7828 5.4312L11.4319 5.05555ZM10.6797 7.86273L10.3054 7.21284L10.3047 7.21321L10.6797 7.86273ZM10.1792 8.15169L10.5542 8.80125L10.5542 8.80121L10.1792 8.15169ZM9.35855 9.2211L10.083 9.41521L9.35855 9.2211ZM9.53458 10.5576L10.1841 10.1826L10.1841 10.1825L9.53458 10.5576ZM12.1762 15.1343L11.5266 15.5093L11.5266 15.5093L12.1762 15.1343ZM13.2456 15.955L13.4397 15.2306L13.2456 15.955ZM14.5821 15.779L14.2078 15.129L14.207 15.1295L14.5821 15.779ZM15.0835 15.4903L15.4577 16.1403L15.4591 16.1394L15.0835 15.4903ZM17.8907 16.2425L17.2408 16.6168L17.2412 16.6175L17.8907 16.2425ZM19.0651 18.2766L18.4155 18.6516L18.4159 18.6522L19.0651 18.2766ZM19.2712 19.8362L19.9956 20.0303L19.2712 19.8362ZM18.3129 21.0838L17.9385 20.4339L17.9379 20.4342L18.3129 21.0838ZM17.4454 21.5846L17.0704 20.9351L17.0701 20.9352L17.4454 21.5846ZM12.9691 21.5244L13.4005 20.911L13.3993 20.9101L12.9691 21.5244ZM9.25497 11.5733C9.46207 11.932 9.92077 12.0549 10.2795 11.8478C10.6382 11.6407 10.7611 11.182 10.554 10.8233L9.90449 11.1983L9.25497 11.5733ZM5.91534 14.5684C6.10523 14.9365 6.55759 15.081 6.92571 14.8911C7.29383 14.7012 7.43832 14.2489 7.24843 13.8808L6.58189 14.2246L5.91534 14.5684ZM8.68925 16.2402C8.44874 15.903 7.98039 15.8246 7.64315 16.0651C7.30592 16.3056 7.22751 16.7739 7.46802 17.1112L8.07864 16.6757L8.68925 16.2402ZM6.08301 13.1863L6.76795 12.8807L6.08301 13.1863ZM4.3968 6.67683L5.1438 6.60988C5.02977 5.3375 5.75863 4.1112 6.95688 3.41939L6.58188 2.76987L6.20689 2.12035C4.59768 3.04942 3.4745 4.78787 3.64979 6.74377L4.3968 6.67683ZM6.58188 2.76987L6.95644 3.41965L7.82488 2.91905L7.45032 2.26927L7.07577 1.61949L6.20733 2.12009L6.58188 2.76987ZM7.45032 2.26927L7.82598 2.91841C7.97426 2.8326 8.13802 2.77687 8.30787 2.75443L8.2096 2.01089L8.11133 1.26736C7.74594 1.31565 7.39367 1.43553 7.07467 1.62013L7.45032 2.26927ZM8.2096 2.01089L8.30787 2.75443C8.47771 2.73198 8.65032 2.74325 8.81581 2.78759L9.00992 2.06314L9.20404 1.3387C8.84803 1.24331 8.47671 1.21907 8.11133 1.26736L8.2096 2.01089ZM9.00992 2.06314L8.81581 2.78759C8.98129 2.83193 9.13641 2.90847 9.27228 3.01284L9.72915 2.41805L10.186 1.82327C9.89374 1.59876 9.56004 1.43409 9.20404 1.3387L9.00992 2.06314ZM9.72915 2.41805L9.27228 3.01284C9.40815 3.1172 9.5221 3.24734 9.60761 3.3958L10.2575 3.02145L10.9074 2.64711C10.7234 2.32774 10.4783 2.04778 10.186 1.82327L9.72915 2.41805ZM10.2575 3.02145L9.60799 3.39645L10.7824 5.43055L11.4319 5.05555L12.0814 4.68055L10.907 2.64645L10.2575 3.02145ZM11.4319 5.05555L10.7828 5.4312C10.8686 5.57949 10.9243 5.74324 10.9467 5.91309L11.6903 5.81482L12.4338 5.71655C12.3855 5.35116 12.2656 4.99889 12.081 4.67989L11.4319 5.05555ZM11.6903 5.81482L10.9467 5.91309C10.9692 6.08294 10.9579 6.25555 10.9136 6.42103L11.638 6.61515L12.3625 6.80926C12.4579 6.45326 12.4821 6.08193 12.4338 5.71655L11.6903 5.81482ZM11.638 6.61515L10.9136 6.42103C10.8692 6.58652 10.7927 6.74163 10.6883 6.8775L11.2831 7.33437L11.8779 7.79125C12.1024 7.49896 12.2671 7.16526 12.3625 6.80926L11.638 6.61515ZM11.2831 7.33437L10.6883 6.8775C10.584 7.01337 10.4538 7.12732 10.3054 7.21284L10.6797 7.86273L11.0541 8.51263C11.3734 8.32867 11.6534 8.08353 11.8779 7.79125L11.2831 7.33437ZM10.6797 7.86273L10.3047 7.21321L9.80423 7.50217L10.1792 8.15169L10.5542 8.80121L11.0547 8.51225L10.6797 7.86273ZM10.1792 8.15169L9.8043 7.50213C9.51867 7.667 9.26831 7.88652 9.06753 8.14816L9.66252 8.60476L10.2575 9.06136C10.3384 8.95602 10.4392 8.86763 10.5542 8.80125L10.1792 8.15169ZM9.66252 8.60476L9.06753 8.14816C8.86674 8.40979 8.71947 8.70842 8.63411 9.02698L9.35855 9.2211L10.083 9.41521C10.1174 9.28695 10.1767 9.16671 10.2575 9.06136L9.66252 8.60476ZM9.35855 9.2211L8.63411 9.02698C8.54875 9.34555 8.52698 9.6778 8.57005 10.0048L9.31362 9.90685L10.0572 9.80891C10.0399 9.67726 10.0486 9.54348 10.083 9.41521L9.35855 9.2211ZM9.31362 9.90685L8.57005 10.0048C8.61311 10.3318 8.72017 10.647 8.8851 10.9326L9.53458 10.5576L10.1841 10.1825C10.1176 10.0675 10.0745 9.94056 10.0572 9.80891L9.31362 9.90685ZM12.1762 15.1343L11.5266 15.5093C11.6915 15.7949 11.911 16.0453 12.1726 16.246L12.6292 15.6511L13.0859 15.0561C12.9805 14.9752 12.8921 14.8744 12.8257 14.7594L12.1762 15.1343ZM12.6292 15.6511L12.1726 16.246C12.4343 16.4468 12.7329 16.5941 13.0515 16.6795L13.2456 15.955L13.4397 15.2306C13.3114 15.1962 13.1912 15.1369 13.0859 15.0561L12.6292 15.6511ZM13.2456 15.955L13.0515 16.6795C13.37 16.7648 13.7023 16.7866 14.0293 16.7435L13.9313 15.9999L13.8334 15.2564C13.7017 15.2737 13.568 15.2649 13.4397 15.2306L13.2456 15.955ZM13.9313 15.9999L14.0293 16.7435C14.3562 16.7005 14.6715 16.5934 14.9571 16.4285L14.5821 15.779L14.207 15.1295C14.092 15.1959 13.9651 15.239 13.8334 15.2564L13.9313 15.9999ZM14.5821 15.779L14.9563 16.429L15.4577 16.1403L15.0835 15.4903L14.7093 14.8403L14.2078 15.129L14.5821 15.779ZM15.0835 15.4903L15.4591 16.1394C15.6074 16.0536 15.7712 15.9979 15.941 15.9754L15.8428 15.2319L15.7445 14.4884C15.3791 14.5367 15.0268 14.6565 14.7078 14.8412L15.0835 15.4903ZM15.8428 15.2319L15.941 15.9754C16.1109 15.953 16.2835 15.9643 16.449 16.0086L16.6431 15.2842L16.8372 14.5597C16.4812 14.4643 16.1099 14.4401 15.7445 14.4884L15.8428 15.2319ZM16.6431 15.2842L16.449 16.0086C16.6145 16.053 16.7696 16.1295 16.9054 16.2339L17.3623 15.6391L17.8192 15.0443C17.5269 14.8198 17.1932 14.6551 16.8372 14.5597L16.6431 15.2842ZM17.3623 15.6391L16.9054 16.2339C17.0413 16.3382 17.1553 16.4684 17.2408 16.6168L17.8907 16.2425L18.5406 15.8681C18.3566 15.5488 18.1115 15.2688 17.8192 15.0443L17.3623 15.6391ZM17.8907 16.2425L17.2412 16.6175L18.4155 18.6516L19.0651 18.2766L19.7146 17.9016L18.5402 15.8675L17.8907 16.2425ZM19.0651 18.2766L18.4159 18.6522C18.5017 18.8005 18.5575 18.9643 18.5799 19.1341L19.3234 19.0358L20.067 18.9376C20.0187 18.5722 19.8988 18.2199 19.7142 17.9009L19.0651 18.2766ZM19.3234 19.0358L18.5799 19.1341C18.6024 19.304 18.5911 19.4766 18.5467 19.6421L19.2712 19.8362L19.9956 20.0303C20.091 19.6743 20.1153 19.303 20.067 18.9376L19.3234 19.0358ZM19.2712 19.8362L18.5467 19.6421C18.5024 19.8075 18.4259 19.9627 18.3215 20.0985L18.9163 20.5554L19.5111 21.0123C19.7356 20.72 19.9002 20.3863 19.9956 20.0303L19.2712 19.8362ZM18.9163 20.5554L18.3215 20.0985C18.2171 20.2344 18.087 20.3484 17.9385 20.4339L18.3129 21.0838L18.6872 21.7337C19.0066 21.5497 19.2865 21.3046 19.5111 21.0123L18.9163 20.5554ZM18.3129 21.0838L17.9379 20.4342L17.0704 20.9351L17.4454 21.5846L17.8204 22.2341L18.6879 21.7333L18.3129 21.0838ZM17.4454 21.5846L17.0701 20.9352C15.8717 21.6278 14.4454 21.6459 13.4005 20.911L12.9691 21.5244L12.5376 22.1379C14.1438 23.2677 16.2111 23.1642 17.8207 22.234L17.4454 21.5846ZM9.53458 10.5576L8.88506 10.9326L9.25497 11.5733L9.90449 11.1983L10.554 10.8233L10.1841 10.1826L9.53458 10.5576ZM12.9691 21.5244L13.3993 20.9101C11.5715 19.63 9.97972 18.0496 8.68925 16.2402L8.07864 16.6757L7.46802 17.1112C8.85732 19.0592 10.571 20.7606 12.5388 22.1387L12.9691 21.5244ZM11.1176 13.3004L10.4681 13.6753L11.5266 15.5093L12.1762 15.1343L12.8257 14.7594L11.7672 12.9254L11.1176 13.3004ZM6.58189 14.2246L7.24843 13.8808C7.07869 13.5517 6.91849 13.2182 6.76795 12.8807L6.08301 13.1863L5.39806 13.4918C5.56012 13.8551 5.73259 14.2141 5.91534 14.5684L6.58189 14.2246ZM6.08301 13.1863L6.76795 12.8807C5.88435 10.8998 5.33401 8.78146 5.14394 6.61138L4.3968 6.67683L3.64966 6.74227C3.85429 9.07855 4.44678 11.3592 5.39806 13.4918L6.08301 13.1863Z" fill="#23D3C2"/>
<rect x="17.9522" y="5.53595" width="1.5" height="21.9979" rx="0.75" transform="rotate(45 17.9522 5.53595)" fill="#23D3C2"/>
</svg>
