<svg width="24" height="24" viewBox="0 0 24 24" fill="none" xmlns="http://www.w3.org/2000/svg">
<path d="M20.31 3.69001C18.07 1.45001 14.42 1.45001 12.18 3.69001L3.69 12.18C1.45 14.42 1.45 18.07 3.69 20.31C4.81 21.43 6.28 21.99 7.76 21.99C9.24 21.99 10.7 21.43 11.83 20.31L20.32 11.82C22.56 9.58001 22.56 5.93001 20.32 3.69001H20.31ZM10.76 19.25C9.96 20.05 8.89 20.49 7.75 20.49C6.61 20.49 5.55 20.05 4.74 19.25C3.93 18.45 3.5 17.38 3.5 16.24C3.5 15.1 3.94 14.04 4.74 13.23L8.45 9.52001L14.46 15.53L10.75 19.24L10.76 19.25ZM19.25 10.76L15.54 14.47L9.53 8.46001L13.24 4.75001C14.04 3.95001 15.11 3.51001 16.25 3.51001C17.39 3.51001 18.45 3.95001 19.26 4.75001C20.07 5.55001 20.5 6.62001 20.5 7.76001C20.5 8.90001 20.06 9.96001 19.26 10.77L19.25 10.76Z" fill="currentColor"/>
</svg>
