<svg width="24" height="24" viewBox="0 0 24 24" fill="none" xmlns="http://www.w3.org/2000/svg">
<path d="M12.0166 4.99805C12.4307 4.99817 12.7666 5.33391 12.7666 5.74805V11.2305H18.25C18.6642 11.2305 19 11.5663 19 11.9805C18.9998 12.3945 18.6641 12.7305 18.25 12.7305H12.7666V18.248C12.7666 18.6622 12.4307 18.9979 12.0166 18.998C11.6024 18.998 11.2666 18.6622 11.2666 18.248V12.7305H5.75C5.33592 12.7305 5.00021 12.3945 5 11.9805C5 11.5663 5.33579 11.2305 5.75 11.2305H11.2666V5.74805C11.2666 5.33383 11.6024 4.99805 12.0166 4.99805Z" fill="#23D3C2"/>
</svg>
