<svg width="24" height="24" viewBox="0 0 24 24" fill="none" xmlns="http://www.w3.org/2000/svg">
<path d="M20.5 12C20.5 7.30558 16.6944 3.5 12 3.5C7.30558 3.5 3.5 7.30558 3.5 12C3.5 16.6944 7.30558 20.5 12 20.5V22C6.47715 22 2 17.5228 2 12C2 6.47715 6.47715 2 12 2C17.5228 2 22 6.47715 22 12C22 17.5228 17.5228 22 12 22V20.5C16.6944 20.5 20.5 16.6944 20.5 12Z" fill="currentColor"/>
<path d="M11.4375 6.5625C11.4375 6.25078 11.6883 6 12 6C12.3117 6 12.5625 6.25078 12.5625 6.5625V7.5H13.875C14.2898 7.5 14.625 7.83516 14.625 8.25C14.625 8.66484 14.2898 9 13.875 9H11.182C10.5984 9 10.125 9.47344 10.125 10.057C10.125 10.5844 10.5117 11.0297 11.032 11.1047L13.1789 11.4117C14.4398 11.5922 15.375 12.6703 15.375 13.943C15.375 15.3562 14.2289 16.5 12.818 16.5H12.5625V17.4375C12.5625 17.7492 12.3117 18 12 18C11.6883 18 11.4375 17.7492 11.4375 17.4375V16.5H9.75C9.33516 16.5 9 16.1648 9 15.75C9 15.3352 9.33516 15 9.75 15H12.818C13.4016 15 13.875 14.5266 13.875 13.943C13.875 13.4156 13.4883 12.9703 12.968 12.8953L10.8211 12.5883C9.56016 12.4102 8.625 11.3297 8.625 10.057C8.625 8.64609 9.77109 7.5 11.182 7.5H11.4375V6.5625Z" fill="currentColor"/>
</svg>
