<svg width="24" height="24" viewBox="0 0 24 24" fill="none" xmlns="http://www.w3.org/2000/svg">
<path d="M3 18.5C3 17.3065 3.47411 16.1619 4.31802 15.318C5.16193 14.4741 6.30653 14 7.5 14H16.5C17.6935 14 18.8381 14.4741 19.682 15.318C20.5259 16.1619 21 17.3065 21 18.5C21 19.0967 20.7629 19.669 20.341 20.091C19.919 20.5129 19.3467 20.75 18.75 20.75H5.25C4.65326 20.75 4.08097 20.5129 3.65901 20.091C3.23705 19.669 3 19.0967 3 18.5Z" stroke="currentColor" stroke-width="1.5" stroke-linejoin="round"/>
<path d="M12 10C13.864 10 15.375 8.48896 15.375 6.625C15.375 4.76104 13.864 3.25 12 3.25C10.136 3.25 8.625 4.76104 8.625 6.625C8.625 8.48896 10.136 10 12 10Z" stroke="currentColor" stroke-width="1.5"/>
</svg>
