<svg width="24" height="24" viewBox="0 0 24 24" fill="none" xmlns="http://www.w3.org/2000/svg">
<g clip-path="url(#clip0_380_7776)">
<path d="M16.6885 14.9263H15.7618L15.4333 14.6097C16.841 12.9682 17.5684 10.7288 17.1695 8.34875C16.6182 5.0893 13.8964 2.48644 10.6116 2.0878C5.6492 1.47812 1.47279 5.65208 2.08283 10.6116C2.4817 13.8945 5.08609 16.6146 8.34745 17.1657C10.7289 17.5643 12.9697 16.8374 14.6121 15.4304L14.9288 15.7587V16.6849L19.9147 21.6679C20.3957 22.1486 21.1817 22.1486 21.6627 21.6679C22.1437 21.1872 22.1437 20.4017 21.6627 19.9209L16.6885 14.9263ZM9.64964 14.9263C6.7285 14.9263 4.37047 12.5696 4.37047 9.65018C4.37047 6.73075 6.7285 4.3741 9.64964 4.3741C12.5708 4.3741 14.9288 6.73075 14.9288 9.65018C14.9288 12.5696 12.5708 14.9263 9.64964 14.9263Z" fill="#9FAACD"/>
</g>
<defs>
<clipPath id="clip0_380_7776">
<rect width="24" height="24" fill="white"/>
</clipPath>
</defs>
</svg>
