<svg width="24" height="24" viewBox="0 0 24 24" fill="none" xmlns="http://www.w3.org/2000/svg">
<path d="M12 11V7M18.709 3.495C16.817 2.554 14.5 2 12 2C9.5 2 7.184 2.554 5.291 3.495C4.363 3.957 3.899 4.188 3.45 4.914C3.001 5.64 3 6.342 3 7.748V11.238C3 16.921 7.542 20.08 10.173 21.434C10.907 21.811 11.273 22 12 22C12.727 22 13.093 21.811 13.827 21.434C16.457 20.08 21 16.92 21 11.237V7.748C21 6.342 21 5.64 20.55 4.914C20.1 4.188 19.637 3.957 18.709 3.495Z" stroke="#23D3C2" stroke-width="1.5" stroke-linecap="round" stroke-linejoin="round"/>
<path d="M12.125 14.75H12M12.25 14.75C12.25 14.8163 12.2237 14.8799 12.1768 14.9268C12.1299 14.9737 12.0663 15 12 15C11.9337 15 11.8701 14.9737 11.8232 14.9268C11.7763 14.8799 11.75 14.8163 11.75 14.75C11.75 14.6837 11.7763 14.6201 11.8232 14.5732C11.8701 14.5263 11.9337 14.5 12 14.5C12.0663 14.5 12.1299 14.5263 12.1768 14.5732C12.2237 14.6201 12.25 14.6837 12.25 14.75Z" stroke="#23D3C2" stroke-width="1.5" stroke-linecap="round" stroke-linejoin="round"/>
</svg>
