<svg width="18" height="18" viewBox="0 0 18 18" fill="none" xmlns="http://www.w3.org/2000/svg">
<path fill-rule="evenodd" clip-rule="evenodd" d="M9.00014 1.96875C9.16672 1.96886 9.32954 2.01828 9.46808 2.11077C9.60662 2.20327 9.71468 2.3347 9.77864 2.4885L11.3649 6.30563L15.4869 6.63525C15.653 6.64861 15.8114 6.71085 15.9422 6.81411C16.0729 6.91737 16.1702 7.05704 16.2217 7.21551C16.2732 7.37398 16.2766 7.54414 16.2315 7.70455C16.1865 7.86496 16.0949 8.00843 15.9684 8.11688L12.8285 10.8056L13.7881 14.8275C13.8267 14.9895 13.8164 15.1594 13.7586 15.3156C13.7008 15.4718 13.5981 15.6074 13.4634 15.7053C13.3286 15.8033 13.1679 15.8591 13.0015 15.8659C12.8351 15.8726 12.6704 15.8299 12.5281 15.7433L8.99789 13.59L5.47102 15.7444C5.3288 15.8311 5.1641 15.8737 4.99767 15.867C4.83125 15.8602 4.67054 15.8044 4.5358 15.7065C4.40107 15.6085 4.29833 15.4729 4.24053 15.3167C4.18273 15.1605 4.17247 14.9907 4.21102 14.8286L5.16952 10.8079L2.03077 8.11913C1.90392 8.01084 1.81202 7.86738 1.76666 7.70688C1.72131 7.54638 1.72453 7.37604 1.77594 7.21738C1.82734 7.05871 1.92461 6.91884 2.05547 6.81543C2.18633 6.71202 2.34489 6.64971 2.51114 6.63638L6.63202 6.30675L8.21827 2.48963C8.28228 2.33508 8.39079 2.20305 8.53 2.1103C8.66922 2.01756 8.83286 1.96829 9.00014 1.96875Z" fill="#FFCF65"/>
</svg>
