<svg width="24" height="24" viewBox="0 0 24 24" fill="none" xmlns="http://www.w3.org/2000/svg">
<path d="M21.75 11C21.75 9.48 20.52 8.25 19 8.25C17.48 8.25 16.25 9.48 16.25 11C16.25 12.25 17.1 13.3 18.25 13.63V15.5C18.25 18.12 16.12 20.25 13.5 20.25C10.88 20.25 8.75 18.12 8.75 15.5V13.7C11.57 13.33 13.75 10.92 13.75 8V5C13.75 4.04 12.96 3.25 12 3.25H11.75V3C11.75 2.59 11.41 2.25 11 2.25C10.59 2.25 10.25 2.59 10.25 3V5C10.25 5.41 10.59 5.75 11 5.75C11.41 5.75 11.75 5.41 11.75 5V4.75H12C12.14 4.75 12.25 4.86 12.25 5V8C12.25 10.34 10.34 12.25 8 12.25C5.66 12.25 3.75 10.34 3.75 8V5C3.75 4.86 3.86 4.75 4 4.75H4.25V5C4.25 5.41 4.59 5.75 5 5.75C5.41 5.75 5.75 5.41 5.75 5V3C5.75 2.59 5.41 2.25 5 2.25C4.59 2.25 4.25 2.59 4.25 3V3.25H4C3.04 3.25 2.25 4.04 2.25 5V8C2.25 10.92 4.43 13.33 7.25 13.7V15.5C7.25 18.95 10.05 21.75 13.5 21.75C16.95 21.75 19.75 18.95 19.75 15.5V13.63C20.9 13.3 21.75 12.25 21.75 11ZM19 12.25C18.31 12.25 17.75 11.69 17.75 11C17.75 10.31 18.31 9.75 19 9.75C19.69 9.75 20.25 10.31 20.25 11C20.25 11.69 19.69 12.25 19 12.25Z" fill="currentColor"/>
</svg>
