<svg width="24" height="24" viewBox="0 0 24 24" fill="none" xmlns="http://www.w3.org/2000/svg">
<path d="M21.75 6C21.75 5 21.36 4.06 20.65 3.35C19.94 2.64 19 2.25 18 2.25C17 2.25 16.06 2.64 15.35 3.35L8.53 10.17C6.5 10.02 4.54 10.95 3.35 12.66C2.04 14.55 2 17.1 3.26 19.01C4.23 20.49 5.78 21.44 7.51 21.62C7.71 21.64 7.91 21.65 8.11 21.65C9.63 21.65 11.08 21.05 12.17 19.97C13.37 18.77 13.97 17.15 13.84 15.47L20.66 8.65C21.37 7.94 21.76 7 21.76 6H21.75ZM19.59 7.59L12.52 14.66C12.35 14.83 12.27 15.06 12.31 15.3C12.5 16.64 12.06 17.95 11.11 18.91C10.2 19.82 8.95 20.27 7.67 20.13C6.39 20 5.24 19.29 4.52 18.19C3.6 16.78 3.63 14.91 4.59 13.52C5.41 12.34 6.72 11.66 8.11 11.66C8.31 11.66 8.51 11.67 8.71 11.7C8.94 11.73 9.18 11.65 9.35 11.49L16.42 4.42C16.84 4 17.41 3.76 18.01 3.76C18.61 3.76 19.18 3.99 19.6 4.42C20.02 4.84 20.26 5.41 20.26 6.01C20.26 6.61 20.03 7.18 19.6 7.6L19.59 7.59Z" fill="#23D3C2"/>
<path d="M17.47 5.47L9.43 13.51C8.38 12.93 7.04 13.07 6.15 13.96C5.63 14.48 5.34 15.17 5.34 15.9C5.34 16.63 5.63 17.33 6.15 17.84C6.69 18.38 7.39 18.64 8.09 18.64C8.79 18.64 9.5 18.37 10.03 17.84C10.55 17.32 10.84 16.63 10.84 15.9C10.84 15.42 10.71 14.97 10.48 14.57L18.53 6.53C18.82 6.24 18.82 5.76 18.53 5.47C18.24 5.18 17.76 5.18 17.47 5.47ZM8.98 16.78C8.49 17.27 7.7 17.27 7.21 16.78C6.97 16.54 6.84 16.23 6.84 15.9C6.84 15.57 6.97 15.25 7.21 15.02C7.45 14.78 7.77 14.65 8.09 14.65C8.41 14.65 8.73 14.77 8.97 15.02C9.21 15.26 9.34 15.57 9.34 15.9C9.34 16.23 9.21 16.55 8.97 16.78H8.98Z" fill="#23D3C2"/>
</svg>
