<svg width="24" height="24" viewBox="0 0 24 24" fill="none" xmlns="http://www.w3.org/2000/svg">
<path d="M20.5 12C20.5 7.30543 16.6946 3.5 12 3.5C7.30543 3.5 3.5 7.30543 3.5 12C3.5 16.6946 7.30543 20.5 12 20.5V22C6.477 22 2 17.523 2 12C2 6.477 6.477 2 12 2C17.523 2 22 6.477 22 12C22 17.523 17.523 22 12 22V20.5C16.6946 20.5 20.5 16.6946 20.5 12Z" fill="#23D3C2"/>
<path d="M11.254 6.7489C11.254 6.33469 11.5898 5.9989 12.004 5.9989C12.4182 5.9989 12.754 6.33469 12.754 6.7489V11.6942L16.7735 15.7147C17.0664 16.0076 17.0664 16.4824 16.7735 16.7753C16.4806 17.0681 16.0058 17.0681 15.713 16.7753L11.4737 12.535C11.3331 12.3944 11.254 12.2036 11.254 12.0048V6.7489Z" fill="#23D3C2"/>
</svg>
