<svg width="24" height="24" viewBox="0 0 24 24" fill="none" xmlns="http://www.w3.org/2000/svg">
<path d="M16 19.25C16 20.0784 15.3284 20.75 14.5 20.75H9.5C8.67157 20.75 8 20.0784 8 19.25H3L2.7959 19.2393C1.78722 19.137 1 18.2857 1 17.25V5.25C1 4.14543 1.89543 3.25 3 3.25H21C22.1046 3.25 23 4.14543 23 5.25V17.25C23 18.2857 22.2128 19.137 21.2041 19.2393L21 19.25H16ZM3 4.75C2.72386 4.75 2.5 4.97386 2.5 5.25V17.25C2.5 17.5261 2.72386 17.75 3 17.75H21C21.2761 17.75 21.5 17.5261 21.5 17.25V5.25C21.5 4.97386 21.2761 4.75 21 4.75H3Z" fill="#23D3C2"/>
<path d="M10.5106 7.85494C9.84395 7.47399 9.01447 7.95536 9.01447 8.72318V13.2768C9.01447 14.0446 9.84395 14.526 10.5106 14.1451L14.495 11.8682C15.1669 11.4843 15.1669 10.5157 14.495 10.1318L10.5106 7.85494Z" fill="#23D3C2"/>
</svg>
