<svg width="24" height="24" viewBox="0 0 24 24" fill="none" xmlns="http://www.w3.org/2000/svg">
<path d="M22.6802 10.7075C22.9648 11.0623 23.1225 11.5235 23.1225 12.0001C23.1225 12.4766 22.9648 12.9378 22.6802 13.2926C20.8802 15.4715 16.7831 19.7143 12.0002 19.7143C7.21736 19.7143 3.12022 15.4715 1.32022 13.2926C1.03564 12.9378 0.87793 12.4783 0.87793 12.0001C0.87793 11.5218 1.03564 11.0623 1.32022 10.7075C3.12022 8.52862 7.21736 4.28577 12.0002 4.28577C16.7831 4.28577 20.8802 8.52862 22.6802 10.7075Z" stroke="#8FA3A0" stroke-width="1.71429" stroke-linecap="round" stroke-linejoin="round"/>
<path d="M14.4242 14.4245C13.7812 15.0675 12.9092 15.4287 11.9999 15.4287C11.0905 15.4287 10.2185 15.0675 9.57549 14.4245C8.93251 13.7815 8.57129 12.9094 8.57129 12.0001C8.57129 11.0908 8.93251 10.2187 9.57549 9.57574C10.2185 8.93276 11.0905 8.57153 11.9999 8.57153C12.9092 8.57153 13.7812 8.93276 14.4242 9.57574C15.0672 10.2187 15.4284 11.0908 15.4284 12.0001C15.4284 12.9094 15.0672 13.7815 14.4242 14.4245Z" stroke="#8FA3A0" stroke-width="1.71429" stroke-linecap="round" stroke-linejoin="round"/>
</svg>
